<?xml version="1.0" standalone="no"?>
<!DOCTYPE svg PUBLIC "-//W3C//DTD SVG 1.1//EN" "http://www.w3.org/Graphics/SVG/1.1/DTD/svg11.dtd" >
<svg xmlns="http://www.w3.org/2000/svg">
<metadata>
This is a custom SVG webfont generated by Font Squirrel.
Copyright   :  1998 Digital Graphic Labs  All Rights Reserved
</metadata>
<defs>
<font id="webfontNGrTpCTf" horiz-adv-x="1419" >
<font-face units-per-em="2048" ascent="1638" descent="-410" />
<missing-glyph horiz-adv-x="1024" />
<glyph unicode=" "  horiz-adv-x="1024" />
<glyph unicode="&#x09;" horiz-adv-x="1024" />
<glyph unicode="&#xa0;" horiz-adv-x="1024" />
<glyph unicode="!" horiz-adv-x="628" d="M113 0v379h487v-379h-487zM115 831v603h485v-576l-45 -395h-393z" />
<glyph unicode="&#x22;" horiz-adv-x="681" d="M61 1059v375h230v-359l-21 -248h-186zM420 1059v375h229v-359l-20 -248h-187z" />
<glyph unicode="#" horiz-adv-x="1433" d="M227 408v180h289l37 254h-264v186h286l52 406h180l-59 -410h186l59 406h170l-45 -406h248v-182h-276l-35 -248h260v-186h-277l-55 -408h-180l53 408h-176l-59 -410h-177l56 410h-273zM702 592h183l28 252h-182z" />
<glyph unicode="$" horiz-adv-x="1472" d="M84 737v342q0 18 4 47q4 25 12 45q16 45 45 74q29 31 70 49q29 12 43 15q29 4 47 4h363v207h161v-207h523v-203h-523v-143h328q12 0 41 -4.5t43 -8.5l43 -18q14 -6 39 -23l12 -11q12 -11 19 -19q23 -27 26 -37q12 -22 19 -43q6 -20 6 -51v-367q0 -22 -6 -43l-13 -43 q-8 -16 -20 -37q-16 -25 -27 -35q-4 -4 -9 -10t-10 -10t-9 -8q-16 -14 -35 -23q-23 -14 -47 -20q-33 -8 -49 -9h-355v-215h-157v220h-545v202h545v160h-322q-43 0 -61 4q-37 8 -53.5 14.5t-45.5 22.5q-25 14 -36 27q-10 10 -27 34q-12 20 -21 37q-8 18 -14 41q-4 14 -4 43z M487 995q0 -2 5 -10l8 -8q6 -6 10 -8t12 -2h146v139h-146q-8 0 -12 -2q-6 -4 -10 -10q-4 -2 -8.5 -10.5t-4.5 -14.5v-74zM829 354h134q8 0 12 2q2 0 6 4.5t6 4.5l8 12q4 8 4 10v92q0 8 -2 13l-8 8q-8 8 -14 10q-12 4 -19 4h-127v-160z" />
<glyph unicode="%" horiz-adv-x="2078" d="M76 883v348q0 25 2 39q4 25 8 41q2 20 12.5 38.5t20.5 32.5l24 25q8 10 31 16q23 8 29 11q10 2 33 2h430q10 0 34 -4q8 -2 31 -11q20 -8 29 -14q12 -10 22 -23q8 -10 21 -34q2 -4 12 -35l6 -37q2 -12 2 -39v-362q0 -47 -8 -74q-6 -25 -14 -39q-6 -12 -19 -33 q-18 -20 -51 -39q-27 -14 -61 -14h-437q-10 0 -34 4q-16 2 -33 12q-10 6 -31 23q-8 8 -24 26q-14 23 -17 31l-12 37q0 8 -2 17.5t-2 17.5q-2 12 -2 37zM336 848q0 -8 6 -17q8 -12 10 -14q8 -6 17 -8q12 -4 16 -4h133q8 0 14 2q9 3 13 6q8 8 10 12t2 13v436q0 8 -2 12 q-4 10 -10 12q-2 4 -13 9q-12 4 -14 4h-139q-8 0 -17 -4q-6 -3 -12 -13q-6 -6 -10 -14t-4 -14v-418zM510 -2l745 1436h295l-747 -1436h-293zM1235 188v349q0 27 2 41q0 8 2 20t2 20q6 18 14 37q12 25 21 35l24 23q10 8 31 18q2 0 12.5 3t16.5 5q10 2 35 2h428q25 0 35 -2 t30 -10l14.5 -7t14.5 -9q12 -10 22 -23q10 -14 20.5 -32.5t12.5 -34.5q4 -14 8 -39q2 -12 2 -37v-365q0 -37 -10 -73q-2 -20 -12 -39q-4 -6 -23 -31q-27 -29 -49 -39q-29 -12 -59 -12h-436q-12 0 -37 4q-12 2 -33 10q-20 12 -31 21q-16 14 -24 28q-12 20 -17 33q0 2 -5 14.5 t-7 20.5q-4 20 -4 33v36zM1493 154q0 -4 4 -17q2 -6 12 -12q8 -8 15 -10q12 -4 16 -4h135q10 0 14.5 2t12.5 10q6 4 10 10q4 8 4 12v437q0 4 -4 12q-2 4 -10 12l-12 6q-8 4 -15 4h-139q-6 0 -14.5 -4t-14.5 -10q-8 -8 -10 -14q-4 -12 -4 -17v-417z" />
<glyph unicode="&#x26;" horiz-adv-x="1705" d="M96 266v344q0 37 8 68q10 37 23 59q12 20 29 41q12 16 37 33q33 20 53 27q31 8 63 6l109 2l-131 192q-12 18 -21 45q-2 8 -4 25.5t-2 19.5q-2 14 -2 48q0 8 1 21t1 20q4 47 12 67q14 37 29 55q18 23 41 41q16 14 53 29q28 12 62 18q35 6 71 7h326h51q20 0 53 -4 q23 -2 64 -11q31 -6 55 -18q33 -16 49 -31q18 -16 35 -39q12 -25 17 -39q6 -22 6 -49q0 -35 -4 -55q-2 -10 -17 -68q-8 -45 -16 -65l-25 -68q-8 -20 -28.5 -61l-30.5 -60q-31 -43 -41 -55q-14 -16 -43 -37l-186 187q22 22 36 49q12 20 23 57q6 33 4 59q-4 33 -16 54 q-15 25 -37 37q-23 14 -47 16q-8 0 -29 -4q-16 -4 -29 -8q-10 -4 -26 -17q-12 -9 -19 -24q0 -2 -2 -7.5t-4 -9.5q-6 -8 -8 -22q-2 -10 -2 -35q0 -23 8 -45q10 -27 31 -51q29 -37 55 -62l434 -405l185 205l180 -183l-164 -198l100 -93l162 5v-283h-358l-123 113l-17 -17 q-6 -8 -14 -14q-6 -4 -14 -12q-2 -2 -8.5 -7.5t-10.5 -9.5q-18 -16 -55 -35q-29 -14 -65 -14h-584q-31 0 -55 8q-37 12 -56 23q-29 12 -43 22l-37 31l-36 43q-12 14 -29 43q-16 35 -21 47q-6 24 -6 49zM475 408q2 -37 41 -82q12 -12 23 -21q14 -12 30 -22q12 -8 37 -21 q18 -10 33 -12h29q12 0 41 4q2 0 20.5 2t28.5 4q29 6 53 16q37 10 55 21q27 12 45 27l-307 286l-33 -24l-28 -29q-12 -12 -33 -37q-14 -16 -25 -41q-14 -28 -10 -71z" />
<glyph unicode="'" horiz-adv-x="303" d="M61 1059v375h230v-359l-21 -248h-186z" />
<glyph unicode="(" horiz-adv-x="839" d="M143 68v1056q0 16 9 54q8 35 20 55q14 33 29 51q25 33 39 49q23 23 47 41q33 25 49 33q10 6 53 20q25 8 55 9h357v-215h-191q-16 0 -32.5 -10.5t-26.5 -22.5q-14 -14 -22.5 -30.5t-8.5 -33.5v-1040q0 -16 8 -33q6 -12 25 -31q14 -14 30.5 -22t32.5 -8h185v-215h-324 q-41 0 -71 10q-49 16 -72 29q-37 20 -53 32q-33 25 -50 41q-14 14 -34.5 43t-28.5 43q-12 33 -16 47q-9 30 -9 48z" />
<glyph unicode=")" horiz-adv-x="839" d="M143 -10h185q18 0 34.5 8t30.5 22q18 25 23 31q8 16 8 33v1040q0 16 -8 33q-6 14 -21 31q-14 12 -28 22q-16 10 -33 11h-191v215h357q31 0 55 -9q43 -14 53 -20q23 -10 51 -33q16 -12 46 -41q14 -16 38 -49q20 -27 31 -51q10 -23 19 -55q8 -37 8 -54v-1056q0 -27 -6 -48 q-6 -25 -19 -47q-8 -14 -28.5 -42.5t-34.5 -43.5q-16 -16 -49 -41q-6 -4 -52 -32q-25 -12 -73 -29q-31 -10 -72 -10h-324v215z" />
<glyph unicode="*" horiz-adv-x="1171" d="M254 1126l102 174l230 -131v267h202v-267l230 134l100 -177l-225 -133l225 -131l-102 -176l-228 129v-260h-206v262l-226 -131l-100 178l227 131z" />
<glyph unicode="+" horiz-adv-x="1193" d="M82 428v211h424v422h209v-422h424v-211h-424v-422h-209v422h-424z" />
<glyph unicode="," horiz-adv-x="665" d="M150 0v375h487v-375l-246 -307h-207l144 307h-178z" />
<glyph unicode="-" horiz-adv-x="1193" d="M82 428v211h266h262h260h269v-211h-529h-528z" />
<glyph unicode="." horiz-adv-x="675" d="M158 0v377h485v-377h-485z" />
<glyph unicode="/" horiz-adv-x="679" d="M-86 0l514 1436h219l-514 -1436h-219z" />
<glyph unicode="0" horiz-adv-x="1601" d="M104 385v659q0 49 5 76q4 33 16 78q14 53 22 74q12 27 39 61q29 33 45 47q20 18 62 33q33 12 53 17q31 6 64 6h815q35 0 65 -6q18 -4 58 -19q35 -18 55 -32.5t41 -43.5q23 -25 39 -61q15 -34 24 -68q12 -51 15 -71q4 -49 4 -70v-692q0 -29 -4 -74q-2 -29 -15 -68 q-10 -43 -26 -71q-25 -45 -37 -60q-27 -31 -43 -43q-20 -16 -51 -30q-23 -12 -58 -21q-27 -6 -57 -6h-829q-34 0 -68 6q-23 4 -64 25q-31 14 -57 39q-23 18 -47 55q-10 16 -31 57q-6 12 -20 70q-8 41 -10 63q-5 45 -5 70zM600 319q0 -16 8 -30.5t23 -24.5q12 -10 26 -20 q14 -8 33 -8h256q12 0 25 6q8 4 24 16q16 16 19 21q6 12 6 22v829q0 10 -6 23q-2 4 -19 21q-16 12 -24 16q-12 6 -25 6h-266q-14 0 -29 -8q-16 -10 -24 -21q-18 -18 -21 -24q-6 -15 -6 -31v-793z" />
<glyph unicode="1" horiz-adv-x="1120" d="M389 997v254l563 185h117v-1432h-496v993h-184z" />
<glyph unicode="2" horiz-adv-x="1546" d="M119 0v678q0 35 2 53q6 51 6 53q4 23 12 41l19 37q16 20 28 31q14 12 39 22q12 8 37 15q4 0 45 6l619 33q14 0 20 4q2 2 9.5 5t11.5 7l12 19q4 6 4 20v141q0 10 -4 15q-8 8 -14 10l-19 6q-6 2 -18 2h-781v238h1035q39 0 57 -4.5t59 -16.5q31 -10 54 -24q33 -20 49 -37 q20 -16 35 -41q14 -23 24 -53q9 -25 13 -50q4 -33 4 -55v-381q0 -14 -4 -43q-4 -25 -9 -39q-6 -18 -14 -35l-11 -16t-9 -14l-25 -31q-16 -16 -33 -25l-43 -18q-18 -8 -45 -8l-571 -31q-6 0 -19.5 -1t-19.5 -3q-18 -3 -31 -12q-6 -6 -18 -21q-8 -10 -9 -35v-206h828v-236 h-1325z" />
<glyph unicode="3" horiz-adv-x="1517" d="M184 1198v236h977q37 0 56 -2q23 -2 53 -11q37 -8 53 -16q39 -20 49 -27l12 -11q12 -11 19 -19q12 -14 22 -39q12 -27 17 -49q4 -18 4 -62v-301q0 -35 -14 -61q-14 -25 -39 -48q-29 -20 -47 -28q-6 -2 -26 -12.5t-32 -14.5q43 -10 66 -24q33 -18 51 -41q16 -18 31 -56 q10 -27 10 -69v-324q0 -16 -4 -45q-3 -22 -12 -43q-10 -27 -19 -37q-12 -18 -25 -31q-10 -10 -34 -26q-20 -12 -37 -21q-18 -10 -39 -12q-29 -4 -41 -4h-1049v238h711q12 0 21 6q10 8 14 12q9 9 12 18q4 12 4 19v270q0 9 -6 19t-12 12q-14 10 -17 10q-12 4 -18 4h-500v236 h496q6 0 18 4q8 2 16.5 8t14.5 14q6 10 6 17v264q0 9 -6 18q-6 8 -14 15q-14 10 -17 10q-12 4 -18 4h-707z" />
<glyph unicode="4" horiz-adv-x="1695" d="M20 322v352l789 756h582v-736h225v-372h-230v-322h-485v322h-881zM389 702h508v472z" />
<glyph unicode="5" horiz-adv-x="1574" d="M158 676l10 758h1317v-236h-834l-12 -283h586q49 0 102 -16q31 -9 55 -25q16 -10 45 -38q18 -16 33 -39q10 -14 23 -47q6 -16 14 -54q4 -18 4 -57v-375q0 -41 -4 -57q-10 -39 -14 -51q-8 -31 -29 -54q-25 -29 -39 -41q-8 -6 -41 -24q-20 -12 -47 -19q-25 -9 -49 -12 q-33 -4 -51 -4h-1043v231h772q10 0 21 11q8 8 14 22q4 12 8 29q2 10 2 27v282q0 23 -4 33t-14 20q-12 12 -18 15q-16 4 -23 4h-784z" />
<glyph unicode="6" horiz-adv-x="1570" d="M115 279v870q0 23 6 51.5t18 52.5q16 31 31 52q25 33 37 45l43 36q14 12 47 29q14 6 39 15q12 4 39 4h1057v-236h-727q-8 0 -29 -4q-12 -2 -29 -14q-4 -2 -18 -23q-8 -10 -8 -31v-200h591q27 0 52 -6q33 -8 53 -19q33 -16 49 -27q23 -14 45 -36q25 -18 37 -35 q23 -33 27 -41q12 -22 18 -43q4 -14 4 -45v-406q0 -29 -4 -43q-6 -23 -14 -41q-6 -16 -25 -41l-31 -37q-12 -12 -39 -36q-10 -8 -44.5 -29t-61.5 -29q-35 -10 -61 -10h-803q-35 0 -62 8q-41 12 -61 23q-43 20 -47 24q-23 16 -39 33q-12 12 -37 39q-20 25 -29 45 q-12 25 -18 49.5t-6 55.5zM616 293q0 -10 7 -21q6 -9 18 -18q8 -8 24.5 -12t22.5 -4h250q10 0 23 6q16 8 20 12q6 4 14 16q6 10 6 21v346q0 14 -4 20.5t-14 16.5q-6 4 -18.5 10t-18.5 6h-278q-9 0 -19 -6q-6 -4 -16 -14l-12 -19q-4 -6 -5 -18v-342z" />
<glyph unicode="7" horiz-adv-x="1531" d="M154 1192v242h1288l18 -242q-25 -27 -45 -52.5t-37 -43.5l-49 -62l-47 -63q-31 -39 -53 -78l-51 -80q-31 -47 -58 -94q-25 -41 -51 -94q-35 -66 -74 -156q-10 -23 -18 -45.5t-16 -42.5l-35 -88q-12 -33 -27 -82q-18 -63 -22 -84q-16 -53 -19 -66l-12 -61h-572q6 20 23 66 q6 18 11 35.5t11 33.5q34 89 74 178q18 43 39 84l43 84q23 45 35 66l37 63q14 29 47 82l49 80l51 80l51 76l58 78l57 75l43 58l45 53h-794z" />
<glyph unicode="8" horiz-adv-x="1579" d="M109 242v286q0 29 8 52q14 39 20 47q6 12 27 32l31 31q6 4 32 23l37 18q47 18 84 21q-27 2 -51 12l-21.5 7t-23.5 9q-14 6 -39 19q-14 6 -31 20q-35 27 -55 64q-14 35 -14 80v221q0 33 4 49q6 23 14 43q6 16 23 45q4 8 28 37q20 20 33 31q20 16 39 24q33 14 41 17 q14 4 43 4h907q29 0 60 -7q39 -8 55 -18l43 -25q18 -10 35 -30q20 -20 28 -33q16 -25 23 -39q4 -8 8 -25.5t4 -19.5q4 -14 4 -49v-230q0 -12 -4 -36.5t-10 -36.5q-12 -20 -21 -33q-16 -25 -24 -33t-33 -24q-31 -20 -35 -23q-14 -10 -30 -14q-29 -8 -33 -10q20 -4 31 -9 l30 -12q4 -2 14.5 -8t16.5 -8q14 -10 27 -21q20 -20 30 -33q14 -16 23 -36q8 -18 14 -41q4 -14 4 -41v-285q0 -29 -6 -53q-10 -39 -14 -51q-6 -16 -25 -41q-16 -25 -33 -37q-20 -20 -32.5 -28.5t-36.5 -20.5q-23 -10 -51 -19q-16 -4 -54 -4h-893q-29 0 -53 6q-20 6 -51 21 q-12 6 -37 22q-18 12 -33 27q-20 25 -30 39q-25 35 -27 39q-4 10 -14 45q-6 21 -6 43zM612 944q0 -14 4 -31q2 -12 11 -22q10 -14 22 -19q14 -6 33 -6h258q18 0 27 4q4 2 18 17q12 12 16 22q6 16 7 33v174q0 6 -4 27q-2 10 -13 24q-12 16 -20 23q-10 8 -31 8h-258 q-20 0 -31 -8q-12 -8 -20 -21q-8 -10 -15 -26q-4 -10 -4 -29v-170zM614 313q0 -18 2 -26t11 -25q10 -12 20 -18q16 -8 33 -8h262q12 0 24.5 6t18.5 12q12 12 19 27q4 10 4 30v242q0 12 -4 29q-2 12 -11 22q-8 12 -22 19q-12 6 -29 6h-264q-14 0 -29 -11q-6 -6 -18 -20 q-10 -12 -13 -27q-4 -20 -4 -26v-232z" />
<glyph unicode="9" horiz-adv-x="1574" d="M125 754v420q0 27 6 47t16 45q16 29 26.5 43t37.5 41q25 25 39 34q22 15 43 25q23 12 45 18q25 6 47 7h829q27 0 56 -7q31 -6 55 -20q8 -4 22.5 -13.5t18.5 -11.5q20 -12 41 -28q20 -18 39 -39l31 -43q12 -23 18 -45q6 -25 6 -49v-924q0 -25 -6 -49q-6 -27 -20 -49 q-6 -12 -25 -35q-10 -12 -31 -33q-39 -33 -41 -35q-14 -10 -47 -26q-31 -16 -53 -21q-29 -6 -53 -6h-1041v233h738q12 0 26 7q10 4 27 16q4 2 18 23q8 10 8 24v205h-591q-27 0 -64 10q-23 6 -63 27q-14 6 -39 22q-18 12 -33 27q-20 18 -35 37q-2 4 -13 17.5t-16 21.5 q-14 33 -16 41q-6 21 -6 43zM623 795q0 -12 6 -21q8 -12 14 -18q4 -4 21 -13q12 -6 22 -6h252q8 0 20 6q20 10 23 13q6 6 14 18q6 8 6 21v350q0 9 -6 18q-8 12 -14 19l-18 12q-6 4 -21 4h-270q-10 0 -17 -4l-16 -16l-12 -19q-4 -6 -4 -16v-348z" />
<glyph unicode=":" horiz-adv-x="665" d="M150 0v375h487v-375h-487zM150 651v375h487v-375h-487z" />
<glyph unicode=";" horiz-adv-x="665" d="M150 0v375h487v-375l-246 -307h-207l144 307h-178zM150 651v375h487v-375h-487z" />
<glyph unicode="&#x3c;" horiz-adv-x="1155" d="M113 528l536 539h449v-223h-355l-319 -320l313 -313h365v-221h-453z" />
<glyph unicode="=" horiz-adv-x="1193" d="M82 190v207h266h262h260h269v-207h-529h-528zM82 659v211h266h262h260h269v-211h-529h-528z" />
<glyph unicode="&#x3e;" horiz-adv-x="1155" d="M113 -10v221h360l315 313l-319 320h-354v223h448l539 -539l-541 -538h-448z" />
<glyph unicode="?" horiz-adv-x="1413" d="M70 1231v205h1011q25 0 47 -6q14 -4 48 -17q27 -12 45 -24q16 -12 41 -33q29 -29 34 -37q10 -14 27 -43q10 -18 18 -45q6 -23 7 -45v-275q0 -12 -5 -41q-2 -10 -14 -41q-8 -20 -20 -41q-12 -23 -27 -38q-10 -10 -33 -31l-35 -27q-33 -14 -40 -16q-23 -6 -39 -6h-211 q-12 0 -31 -6q-16 -4 -31 -15q-16 -10 -24 -20q-10 -14 -11 -29v-131h-501v211q0 12 4 41q2 16 12 39q14 31 18 39q20 31 25 35q10 12 31 32q2 2 33 27q12 6 36 14q12 4 37 4h250q10 0 27 7q12 4 24 14l21 18q8 10 8 27v197q0 12 -8 22q-8 12 -23 18q-18 10 -26 13 q-20 4 -29 4h-696zM326 0v375h485v-375h-485z" />
<glyph unicode="@" horiz-adv-x="1656" d="M127 776q0 74 14 139q16 74 43 139.5t68 131.5q39 61 92 119q49 51 107 94q59 45 124 74q68 31 142 49q66 16 157 16q59 0 121 -12q41 -8 123 -37q53 -18 117 -57q43 -27 104 -80q55 -46 99 -105q49 -68 75 -125q31 -70 50 -143q16 -68 16 -164q0 -74 -12 -115 q-16 -53 -39 -94q-27 -45 -58 -74q-37 -33 -73 -53q-40 -22 -86 -37q-33 -12 -90 -22q-61 -12 -93 -14q-61 -4 -88 -5h-219h-227q-25 0 -53 17q-23 12 -47 41q-18 20 -33 53q-12 28 -12 55v332q0 35 12 65.5t35 59.5q18 23 51 45q25 16 57 16h230h221q39 0 71 -16 q39 -20 68 -45q33 -29 51.5 -63.5t18.5 -69.5v-252q0 -6 4 -23q2 -8 12 -18q6 -6 14 -6q10 0 17 4q20 12 41 47q16 29 30 70q12 37 18.5 77.5t6.5 77.5q0 46 -12 93q-16 61 -29 90q-18 41 -47 84q-25 35 -62 75q-33 33 -86 72q-47 35 -100 59q-47 23 -110 39q-49 12 -121 17 q-55 0 -97 -8q-61 -12 -88 -25q-43 -20 -77 -43q-43 -29 -70 -55q-55 -53 -94 -115q-45 -74 -70 -135q-25 -66 -39 -146q-12 -74 -12 -139q0 -127 39 -231q39 -106 114 -185q74 -78 181 -122q102 -43 241 -48q10 0 31 1t29 1q31 0 57 7q37 8 55 16q27 12 54 35h143 q-8 -25 -27 -55q-12 -20 -39 -44q-23 -20 -47 -34q-23 -14 -55 -29l-55 -18q-27 -8 -60 -13l-57 -6q-18 -2 -51 -2q-59 2 -131 16q-57 10 -129 35q-51 16 -121 58q-58 34 -111 80q-49 46 -92 104q-39 53 -71.5 131t-47.5 160q-16 92 -16 188zM766 575q0 -6 4 -14 q3 -6 12 -12q8 -6 17 -8q12 -4 14 -4h88q4 0 17 4q6 2 14 10q10 10 10 12q4 12 4 15v331q0 4 -4 17q-2 6 -10 14q-6 6 -17 10q-12 4 -16 4h-84q-4 0 -16 -4q-6 -2 -17 -12q-8 -8 -12 -14t-4 -17v-332z" />
<glyph unicode="A" horiz-adv-x="1759" d="M-4 0l637 1430h502l542 -1430h-534l-150 381h-581l-174 -381h-242zM518 621h393l-192 487z" />
<glyph unicode="B" horiz-adv-x="1562" d="M113 2v1430h1075q41 0 59 -2q29 -4 53 -13q41 -12 58 -20q27 -14 47 -31q23 -20 37 -39q15 -22 24 -43q8 -16 17 -49q6 -25 6 -49v-262q0 -20 -8 -50q-6 -23 -19 -40q-10 -16 -28 -31q-20 -16 -35 -23q-6 -2 -33 -12q-25 -8 -37 -10q-20 -4 -57 -8q-18 -2 -53 -2 q20 -2 57 -11q51 -10 53 -12q41 -8 74 -29q14 -6 29 -16q8 -6 22 -21q16 -16 26.5 -40.5t10.5 -49.5v-323q0 -25 -8 -66q-6 -31 -21 -53q-20 -29 -32 -41q-25 -25 -39 -35q-20 -12 -41 -20q-16 -8 -45 -15q-27 -8 -58 -12q-18 -2 -55 -2h-1079zM614 236h324q8 0 20 8 q6 4 19 16q6 8 10 24.5t4 24.5v260q0 12 -6 21q-10 14 -12 16q-4 4 -11.5 8t-9.5 4q-10 6 -20 7h-318v-389zM614 858h318q8 0 20.5 6t20.5 15q4 4 12 20q6 12 6 21v223q0 9 -6 18q-10 14 -12 16.5t-21 14.5q-6 4 -20 4h-318v-338z" />
<glyph unicode="C" horiz-adv-x="1288" d="M88 344v739q0 47 4 68q10 47 14 63q14 37 27 64q14 29 33 53q25 29 37 41q16 16 41 31q25 16 59 27q27 8 66 8h841v-236h-548q-8 0 -25 -8q-12 -6 -23 -16q-12 -12 -18 -24.5t-6 -25.5v-821q0 -8 8 -24q6 -14 18 -23q18 -14 25 -16q14 -6 29 -6h561v-238h-846 q-33 0 -66 6q-29 6 -63 23q-29 16 -51 32q-16 12 -45 45q-15 22 -31 50q-10 18 -23 59q-4 14 -14 61q-4 21 -4 68z" />
<glyph unicode="D" horiz-adv-x="1536" d="M104 2v1432h1037q20 0 57 -4q31 -4 57 -13q41 -10 70 -28q37 -23 59 -50q16 -16 37 -51q18 -29 27 -65q2 -8 12 -62q6 -35 6 -69v-744q0 -27 -4 -72q-3 -34 -12 -61q-8 -35 -25 -63q-20 -37 -34 -52q-18 -20 -45 -41q-18 -14 -52 -28q-41 -16 -73 -23q-37 -6 -76 -6 h-1041zM610 233h291q14 0 25 9q6 6 18 20q4 4 12 25q6 16 7 24v832q0 9 -7 18q-4 6 -16 19q-8 8 -20 14q-8 4 -23 4h-287v-965z" />
<glyph unicode="E" horiz-adv-x="1282" d="M104 2v1432h1106v-232h-600v-344h584v-233h-584v-392h615v-231h-1121z" />
<glyph unicode="F" horiz-adv-x="1269" d="M104 0v1434h1106v-232h-604v-340h588v-239h-592v-623h-498z" />
<glyph unicode="G" horiz-adv-x="1527" d="M88 354v713q0 51 4 76q4 29 17 67q16 53 20 62q20 37 31 51q12 18 41 47q16 16 49 37q20 12 55 20q27 6 60 7h1026v-232h-719q-12 0 -29 -6q-10 -4 -27 -16q-10 -6 -22 -23q-8 -10 -8 -24v-820q0 -6 8 -26q6 -14 18 -27q16 -12 27 -18q14 -8 27 -9h208q6 0 27 9 q14 6 25 16q12 9 18 25q8 20 8 24v318h-266v229h770v-852h-1071q-41 0 -72 8q-41 10 -61 23q-31 14 -57 39q-18 16 -43 49q-10 16 -27 49l-19 49q-4 18 -14 70q-4 22 -4 65z" />
<glyph unicode="H" horiz-adv-x="1558" d="M109 2v1432h501v-572h377v572h500v-1432h-500v623h-377v-623h-501z" />
<glyph unicode="I" horiz-adv-x="677" d="M141 0v1430l504 4v-1434h-504z" />
<glyph unicode="J" horiz-adv-x="1153" d="M23 2v236h466q31 0 54 12q20 12 32 26q14 16 17 35q4 29 4 41v1082h504v-1096q0 -49 -4 -72q-4 -29 -17 -65q-10 -37 -26 -58q-25 -33 -39 -47q-12 -12 -45 -37q-14 -10 -60 -28q-41 -16 -82 -23q-45 -6 -102 -6h-702z" />
<glyph unicode="K" horiz-adv-x="1695" d="M104 2v1432h502v-641l512 641h318l-377 -420l557 -1014h-592l-299 608l-119 -149v-457h-502z" />
<glyph unicode="L" horiz-adv-x="1282" d="M125 2v1432h506v-1201h594v-231h-1100z" />
<glyph unicode="M" horiz-adv-x="2000" d="M113 2v1432h643l252 -816l272 816h629v-1434h-498v1145l-373 -1143h-346l-362 1131v-1131h-217z" />
<glyph unicode="N" horiz-adv-x="1605" d="M109 4v1432h653l545 -1172v1172h223v-1432h-653l-553 1194v-1194h-215z" />
<glyph unicode="O" horiz-adv-x="1585" d="M92 358v709q0 57 4 82q8 49 15 70q8 33 24 65q16 31 33 51q23 27 45 43q25 18 49 31q29 14 72 21q37 6 76 6h782q37 0 71.5 -6.5t63.5 -20.5q39 -16 62 -33q27 -20 49 -53q23 -29 37 -63q14 -37 24 -84q8 -39 10 -68q2 -25 2 -80v-616q0 -33 -4 -86q-2 -39 -12 -76 q-12 -53 -22 -80q-14 -35 -37 -64q-37 -45 -78 -69q-33 -16 -63.5 -24.5t-73.5 -8.5h-840q-37 0 -63.5 6t-55.5 21q-37 18 -57 39q-29 29 -47 55l-29 53q-6 14 -20 62q-10 31 -13 59q-4 41 -4 59zM590 309q0 -16 8 -26q12 -16 18 -23q18 -14 25 -16q20 -8 29 -8h268 q16 0 27 8q16 12 22 20q10 10 16.5 24.5t6.5 26.5v807q0 12 -6 29q-4 12 -19 23q-16 16 -22 18q-16 6 -27 6h-256q-20 0 -35 -6q-4 -2 -27 -18q-14 -14 -20 -33q-8 -25 -8 -37v-795z" />
<glyph unicode="P" horiz-adv-x="1536" d="M113 4v1428h1058q18 0 60 -5q29 -2 57 -12q28 -9 55 -24q33 -18 50 -35l28 -39q14 -20 25 -47q6 -16 14 -58q6 -31 6 -65v-356q0 -35 -6 -66q-6 -33 -14 -53q-10 -29 -23 -45q-20 -29 -28 -37q-20 -20 -39 -31q-29 -16 -45 -22q-29 -12 -64 -19q-20 -4 -63 -4h-574v-510 h-497zM610 750h295q14 0 25 8q6 6 18 20q10 12 13 27q4 20 4 24v297q0 16 -7 29q-8 16 -12 21q-14 14 -18 16q-8 4 -23 4h-295v-446z" />
<glyph unicode="Q" horiz-adv-x="1583" d="M88 350v729q0 18 4 60q2 29 12 59q14 45 21 57q14 33 28.5 55.5t36.5 45.5q27 27 43 37q20 14 70 30q37 12 82 13h832q49 0 79 -11q45 -14 66 -28q31 -23 53 -47q27 -31 39 -56q10 -16 23 -49q2 -8 8 -25.5t8 -25.5q9 -34 12 -68q4 -45 4 -65v-680q0 -47 -4 -72 q-8 -49 -14 -73q-12 -37 -21 -56q-2 -4 -10 -22.5t-12 -28.5q-15 -28 -37 -49q-29 -29 -45 -41q-33 -20 -51 -27q-31 -10 -64 -10h-137l96 -184h-202l-97 184h-522q-41 0 -72 8q-41 10 -61 23q-37 20 -51 33q-25 20 -39 40q-12 16 -33 50q-2 2 -20 53q-12 39 -19 72 q-6 36 -6 69zM592 313q0 -14 6 -26q4 -8 20 -25q12 -12 23 -16q20 -8 29 -8h121l-105 208h193l100 -192q4 4 16 18l6 13q2 4 3 14v831q0 10 -7 23q-4 8 -16 21q-4 4 -25 14q-12 6 -24 6h-264q-12 0 -29 -6q-10 -4 -23 -21q-14 -14 -18 -24q-6 -16 -6 -29v-801z" />
<glyph unicode="R" horiz-adv-x="1640" d="M109 2v1430h1077q82 0 137 -21q59 -23 92 -61q25 -29 33 -47.5t20 -59.5q12 -49 13 -113v-294q0 -8 -1 -22.5t-1 -20.5q0 -14 -4 -43q-2 -8 -15 -39q-10 -25 -22 -37q-10 -14 -24.5 -22.5t-35.5 -14.5q-23 -10 -45 -12q-16 -2 -55 -2l287 -621h-557l-238 619h-160v-619 h-501zM614 858h314q18 0 24 4q10 6 17 17q6 8 8 18q2 8 2 31v219q0 10 -4 22q-4 10 -12 17q-8 4 -21 8q-8 2 -20 2h-308v-338z" />
<glyph unicode="S" d="M92 702v449q0 16 4 49q4 29 13 51q14 41 20 52q8 16 29 45q20 25 32 34q16 14 39 27q27 10 47 16q25 6 54 7h968v-236h-669q-8 0 -21 -4q-2 0 -16 -10q-4 -4 -12 -15q-6 -8 -7 -16v-107q0 -8 4.5 -16t8.5 -14q12 -12 20 -19q10 -8 25 -8h438q18 0 55 -4q39 -4 56 -10 q37 -12 53 -23q33 -20 47 -32q20 -20 30.5 -33t22.5 -41l17 -47q4 -16 4 -60v-438q0 -29 -2 -43l-6 -43q-8 -37 -17 -55q-20 -43 -24 -47q-33 -47 -78 -74q-33 -20 -68 -29q-33 -8 -76 -8h-950v238h670q6 0 22 4q12 2 23 10q12 8 16 14q8 12 8 23v125q0 12 -6 20 q-6 10 -16 17q-10 10 -19 12q-16 4 -20 4h-485q-37 0 -54 4q-6 2 -21 5t-24 5q-23 10 -39 21q-25 16 -32 24q-16 16 -29 35q-6 8 -18 43q-17 45 -17 98z" />
<glyph unicode="T" horiz-adv-x="1355" d="M39 1194v242h1253v-242h-377v-1194h-499v1194h-377z" />
<glyph unicode="U" horiz-adv-x="1570" d="M98 399v1037h502v-1078q0 -20 6 -39q6 -16 21 -34q16 -23 35 -33q25 -14 43 -14h475q18 0 43 8q12 4 28 16q20 20 25 33q6 18 6 39v1102h215v-1055q0 -45 -2 -68q-4 -49 -8 -69q-12 -45 -21 -68q-10 -31 -32 -61q-16 -27 -35 -45q-10 -10 -51 -33q-35 -20 -70 -28.5 t-92 -8.5h-760q-51 0 -84 8q-41 10 -70 25q-25 12 -55 39q-18 16 -43 49q-23 33 -37 63q-10 23 -22 72q-9 37 -13 74q-4 49 -4 69z" />
<glyph unicode="V" horiz-adv-x="1630" d="M0 1436h532l383 -1133l402 1133h239l-512 -1436h-563z" />
<glyph unicode="W" horiz-adv-x="2162" d="M-6 1436h502l215 -940l207 940h499l215 -926l211 926h219l-319 -1436h-486l-223 952l-219 -952h-481z" />
<glyph unicode="X" horiz-adv-x="1662" d="M-12 0l557 631l-557 805h620l289 -418l371 418h307l-547 -609l557 -827h-610l-291 436l-399 -436h-297z" />
<glyph unicode="Y" horiz-adv-x="1589" d="M-23 1436h590l357 -590l333 590h259l-515 -901v-535h-499v555z" />
<glyph unicode="Z" horiz-adv-x="1464" d="M6 0l680 1194h-553v242h1266l-682 -1198h565v-238h-1276z" />
<glyph unicode="[" horiz-adv-x="851" d="M156 1434h655v-220h-283l-2 -1218h285v-221h-653z" />
<glyph unicode="\" horiz-adv-x="679" d="M-86 1436h217l516 -1436h-221z" />
<glyph unicode="]" horiz-adv-x="851" d="M156 -4l282 4l2 1214h-280v220h651v-1659h-655v221z" />
<glyph unicode="^" horiz-adv-x="1218" d="M70 655l448 779h197l446 -781h-205l-338 543l-331 -541h-217z" />
<glyph unicode="_" horiz-adv-x="1077" d="M0 -166h1028v-113h-1028v113z" />
<glyph unicode="`" horiz-adv-x="614" d="M-78 1520h338l328 -328h-318z" />
<glyph unicode="a" d="M63 358v60q0 23 5 63q0 4 12 64q6 35 18 57q20 37 35 51q23 23 51 37q27 12 54 19q31 6 65 6h498q12 0 26 8q20 12 27 20q4 4 12 21q6 12 6 22q0 12 -6 25q-2 4 -16 18q-10 10 -22.5 16.5t-22.5 6.5h-662v207h922q29 0 74 -8q37 -6 61 -21q37 -18 55 -37q25 -25 39 -47 q14 -20 27 -51q8 -18 16 -55q12 -49 15 -76q2 -25 2 -72v-688h-428l-29 113q-4 -16 -8 -23q-6 -8 -8 -16q-6 -12 -15 -21l-16 -16q-25 -20 -45 -29q-23 -8 -55 -8h-447q-37 0 -63 6q-29 6 -54 19q-29 14 -45 30.5t-32 42.5q-14 25 -25 60q-12 47 -14 63q-4 45 -4 70 q0 12 -1.5 32.5t-1.5 30.5zM551 276q0 -12 4 -20q2 -2 5 -10l5 -13q9 -9 25 -18q10 -6 26 -6h193q8 0 20.5 6t22.5 16q4 4 12 21q6 12 6 20v238h-235q-18 0 -33 -8q-16 -10 -27 -21q-12 -16 -18 -26.5t-6 -28.5v-150z" />
<glyph unicode="b" horiz-adv-x="1449" d="M82 0v1436h485v-381h269h268q31 0 63 -4l37 -9q14 -4 19 -8q2 -2 0 -2q20 -8 47 -26q29 -20 41 -35q33 -37 55 -101q2 -2 12 -59q6 -31 6 -70v-436q0 -39 -6 -69q-8 -41 -14 -58q-14 -41 -29 -61q-18 -27 -39 -45q-18 -18 -43 -33q-14 -8 -47 -21q-39 -14 -55 -16 q-14 -2 -33 -2h-12h-4h-508h-512zM563 272q0 -10 6 -22t15 -21q12 -12 20 -16t25 -4h211q12 0 20 4t21 16q2 2 12 23q4 8 4 22v504q0 14 -4 23q-10 20 -12 22q-16 16 -21 19q-12 6 -22 6h-211q-12 0 -25 -6l-18 -19q-6 -6 -15 -22q-6 -12 -6 -25v-504z" />
<glyph unicode="c" horiz-adv-x="1181" d="M63 303v438q0 29 7 60q8 41 14 59q8 29 25 58q20 37 34 53q6 6 41 37q16 14 49 28q23 10 46 13q33 4 51 4h796v-207h-485q-16 0 -31 -8q-20 -12 -28 -21q-12 -10 -23 -26q-6 -10 -6 -29v-475q0 -16 8 -31q10 -16 21 -25q15 -12 30 -18q10 -4 31 -4h483v-209h-780 q-45 0 -76 8q-41 10 -61 23q-39 25 -49 35q-25 25 -39 47l-27 43q-8 16 -16 49t-10 49q-5 33 -5 49z" />
<glyph unicode="d" horiz-adv-x="1433" d="M68 287v467q0 37 6 67q8 47 14 62q9 28 25 49q6 6 14 20.5t14 22.5q14 14 43 35q18 12 49 24q16 6 56 19q23 6 33 6q12 0 14 -2t6 -2h268h269v379h487v-1434h-1024q-51 0 -66 2q-27 4 -34 8q-12 6 -17 10l-4 3q-4 2 -4 4q-33 16 -47 28q-29 25 -39 39l-27 43 q-8 16 -20 49q-8 23 -12 52q-4 33 -4 49zM551 270q0 -14 4 -22q6 -12 14.5 -20.5t20.5 -14.5t22 -6h211q12 0 21 6q12 8 18 14q2 2 12 23q6 12 7 22v510q0 10 -7 23q-8 16 -12 20q-12 12 -18 17q-8 6 -21 6h-215q-8 0 -20 -6q-4 -2 -21 -19q-4 -4 -12 -20q-4 -8 -4 -25v-508 z" />
<glyph unicode="e" horiz-adv-x="1429" d="M66 289v473q0 33 2 47l4 41q6 31 16 63q10 31 25 52q15 25 37 43q23 20 47 28q18 8 51 15q28 6 55 6h811q34 0 68 -6q33 -6 65 -23q25 -12 45 -33q18 -18 35 -45l19 -43q8 -20 12 -47q4 -45 4 -72v-374h-813v-115q0 -20 6 -33q8 -18 23 -28q10 -10 30 -23q10 -6 31 -6 h676v-207h-1008q-41 0 -61 4q-37 8 -58 21q-25 10 -45 26q-14 12 -34 45q-10 14 -21 43q-6 18 -14 56l-6 43q-2 14 -2 49zM551 618h342v166q0 8 -6 21q-8 16 -13 20q-12 12 -18 17q-8 6 -20 6h-232q-9 0 -18 -6q-12 -8 -19 -15q-4 -4 -12 -20q-4 -8 -4 -21v-168z" />
<glyph unicode="f" horiz-adv-x="1144" d="M-4 854v203h201v108q0 27 2 41q2 20 8 39q10 39 14 51q8 20 27 47q10 12 33 35q16 16 41 31q18 8 51 16q28 6 61 7h658v-201h-351q-14 0 -20 -2q-12 -4 -16 -6q-14 -10 -17 -19q-2 -6 -2 -20v-125h385v-205h-385v-850h-489v850h-201z" />
<glyph unicode="g" horiz-adv-x="1429" d="M66 299v465q0 16 4 49q4 31 12 53q12 33 20 49q12 23 29 48q16 23 41 43q20 16 47 30q25 12 51 19q37 8 58 8h1034v-1167q0 -37 -4 -55.5t-16.5 -51.5t-20.5 -47q-2 -4 -29 -41q-14 -18 -35 -37q-33 -27 -34 -29q-14 -8 -52 -22q-23 -8 -49 -8h-977v202h641q23 0 43 11 q18 9 31 24q14 18 19 31q6 18 6 37v92h-551q-35 0 -64 6q-23 4 -53 21q-27 12 -45 26q-22 15 -37 37q-14 16 -26 39q-8 14 -21 47q-8 20 -16 62q-6 30 -6 59zM553 268q0 -12 4 -20q10 -20 12 -23q4 -4 21 -12q12 -6 20 -6h219q14 0 21 4q10 8 14 12q9 9 13 19q4 12 4 20v522 q0 10 -6.5 22.5t-12.5 18.5q-12 12 -18 17q-8 6 -21 6h-237q-8 0 -15 -6q-10 -10 -12 -17q-2 -4 -3 -9t-1 -9q-2 -8 -2 -19v-520z" />
<glyph unicode="h" horiz-adv-x="1464" d="M90 2v1436h485v-383h535q25 0 66 -8q37 -8 57 -21q33 -20 47 -33q29 -25 41 -39q6 -8 16.5 -25.5t12.5 -21.5q8 -14 22 -51q12 -33 19 -70q8 -45 8 -67v-719h-486v793q0 12 -4 18l-12 18q-2 2 -20 15q-6 4 -21 4h-231q-10 0 -21 -6q-4 -2 -14 -19q-8 -12 -10 -20 q-4 -16 -5 -21v-780h-485z" />
<glyph unicode="i" horiz-adv-x="628" d="M119 0v1059h481v-1059h-481zM123 1159v275h473v-275h-473z" />
<glyph unicode="j" horiz-adv-x="651" d="M-319 -190h380q14 0 29 8q16 10 25 20q14 25 16 29q6 15 6 31v1163h486v-1204q0 -14 -5 -43q0 -6 -2 -18.5t-4 -20.5q-16 -43 -18 -47q-12 -22 -31 -43q-14 -16 -40.5 -37t-55.5 -29q-16 -4 -41 -8q-14 -2 -45 -2h-700v201zM141 1161v273h477v-273h-477z" />
<glyph unicode="k" horiz-adv-x="1529" d="M88 0v1434h483v-746l418 365h309l-288 -252l448 -801h-577l-230 494l-80 -78v-418z" />
<glyph unicode="l" horiz-adv-x="628" d="M113 0v1434h487v-1434h-487z" />
<glyph unicode="m" horiz-adv-x="2072" d="M84 0v1055h442v-76q14 23 19 29q16 18 22 24q25 14 29 17q15 6 31 6h469q35 0 59 -13q27 -12 41 -30q12 -12 23 -29q6 -10 14 -27q6 -12 6 -18l-1 -1l-1 3q2 8 7 23.5t5 17.5q2 10 17 33q6 14 26 30q15 12 37 13h387q39 0 76 -10q33 -8 57 -25q23 -14 47 -39q8 -8 33 -47 q8 -14 21 -47q4 -12 14 -51q4 -23 8 -68t4 -61v-707h-442v789q0 16 -4 22l-12 18q-14 10 -17 11q-12 4 -18 4h-185q-12 0 -18 -4t-14 -13q-8 -12 -11 -18q-4 -12 -4 -16v-793h-442v784q0 6 -4 23q-2 10 -8 18q-12 12 -21 17q-12 6 -26 6h-177q-9 0 -18 -6q-4 -2 -14 -19 q-8 -12 -11 -20q-4 -16 -4 -21v-784h-442z" />
<glyph unicode="n" horiz-adv-x="1462" d="M86 0v1053h1022q72 0 135 -35q53 -27 90 -82q14 -20 27 -47q10 -23 20 -58q10 -31 13 -63q4 -45 4 -72v-696h-486v784q0 18 -4 27q-6 12 -12 18q-10 10 -25 15q-16 4 -24 4h-209q-6 0 -23 -4q-10 -2 -20 -13q-8 -4 -14 -18q-6 -12 -7 -27v-786h-487z" />
<glyph unicode="o" horiz-adv-x="1445" d="M61 264v508q0 35 2 51q4 33 7 47q10 39 20 62q12 27 29 47q16 18 39 35q14 10 43 22q25 9 49 13q33 4 49 4h836q18 0 55 -4q23 -2 49 -13q29 -10 43 -20q20 -14 39 -35q23 -33 29 -45q10 -25 20 -64q2 -14 6 -47q2 -16 2 -55v-498q0 -23 -4 -59q-4 -33 -8 -51 q-10 -31 -20 -51q-14 -29 -27 -41q-14 -16 -35 -31q-16 -10 -39 -21q-33 -12 -53 -14q-37 -4 -57 -4h-824q-31 0 -61 6q-35 6 -60 21q-29 16 -43 26q-16 12 -34 37l-27 43q-8 18 -16 55l-7 35q-2 12 -2 41zM547 272q0 -10 6 -22q8 -16 12 -21q12 -12 20.5 -16t20.5 -4h230 q12 0 20 4q12 6 20.5 14.5t14.5 20.5t6 20v520q0 10 -6 21q-8 12 -12 16q-6 6 -19 15q-6 4 -18 4h-264q-6 0 -13 -6q-8 -8 -10 -15l-4 -8t-2 -8q-2 -6 -2 -16v-519z" />
<glyph unicode="p" horiz-adv-x="1447" d="M84 -397v1452h1028q31 0 57 -6q33 -8 56 -19q45 -18 73 -51q20 -20 41 -57t29 -76q4 -14 8 -55q4 -37 4 -62v-410q0 -25 -4 -61.5t-8 -52.5q-10 -33 -22 -62q-10 -25 -29 -49q-18 -27 -37 -39q-14 -10 -43 -26q-35 -16 -61 -23q-31 -6 -64 -6h-547v-397h-481zM563 262 q0 -9 6 -18l13 -19l18 -12q6 -4 21 -4h221q12 0 18 4q4 2 10.5 5t8.5 5t12 23q6 12 6 20v525q0 12 -6 20q-8 12 -12 16q-6 6 -19 15q-6 4 -20 4h-226q-9 0 -18 -6q-10 -6 -16 -17q-10 -10 -13 -20q-4 -16 -4 -21v-520z" />
<glyph unicode="q" horiz-adv-x="1431" d="M63 289v467q0 16 5 57q2 23 14 59q9 28 24 56q18 33 35 49q10 10 35 31q18 15 43 24q33 12 51 17q29 6 60 6h1034v-1450h-483v395h-539q-37 0 -68 6q-27 6 -57 21q-33 18 -47 30q-35 31 -41 37q-25 33 -29 43q-8 16 -20 49q-8 23 -12 52q-5 33 -5 51zM549 268 q0 -12 4 -20q8 -16 12 -21q6 -6 19 -14q6 -4 20 -4h221q14 0 23 6q6 4 18 16q10 14 11 17q4 12 4 18v525q0 12 -7 20q-4 6 -14 16q-6 6 -18 15q-6 4 -21 4h-217q-12 0 -18 -4q-12 -8 -17 -15q-6 -6 -14 -22q-6 -12 -6 -25v-512z" />
<glyph unicode="r" horiz-adv-x="1097" d="M111 0v1055h487v-94q4 6 27 28q8 12 14 17q14 10 16 10q8 6 25 14l25 12q10 2 26.5 6.5t24.5 4.5h291v-293h-256q-43 0 -70 -8q-41 -12 -59 -23q-14 -6 -23 -14q-12 -12 -18 -21q-12 -12 -19 -26q-4 -10 -4 -33v-635h-487z" />
<glyph unicode="s" horiz-adv-x="1349" d="M88 537v278q0 29 6 51q6 20 17 45q16 31 24 39q10 10 33 31q25 20 39 28.5t43 20.5q37 12 57 17q31 6 60 6h862v-195h-645q-2 0 -15 -4l-8 -4t-8 -2q-6 -2 -14 -10q-4 -4 -4 -15v-57q0 -6 6 -12q8 -8 14 -11q2 -2 8 -4t8 -2q6 -2 17 -2h475q16 0 45 -4t43 -8 q29 -12 41 -21q18 -12 35 -28q8 -8 24 -33l19 -39q8 -20 12 -47q4 -33 4 -55v-246q0 -29 -6 -53q-10 -39 -14 -51q-12 -29 -23 -41q-4 -4 -12 -16.5t-14 -18.5q-25 -20 -39 -29q-2 -2 -16.5 -10t-22.5 -12q-25 -12 -58 -19q-18 -4 -57 -4h-928v190h688q4 0 17 5q6 2 14 10 q10 4 12 10q4 12 4 16v60q0 6 -4 14t-12 10q-2 2 -6 5.5t-8 5.5q-6 2 -17 2h-475q-28 0 -55 6q-41 8 -57.5 16t-34.5 21q-20 14 -31 26q-14 16 -20 31q-6 12 -15 37q-4 20 -6 32.5t-2 39.5z" />
<glyph unicode="t" horiz-adv-x="1146" d="M-12 850v205h205v227h489v-227h385v-205h-385v-588q0 -14 2 -20t10 -19q2 -4 19 -12q8 -4 28 -4h353v-205h-639q-47 0 -78 8t-64 27l-37 29q-6 4 -30 34q-6 10 -25 45q-8 14 -16 52q-2 14 -6 39q-2 12 -2 38v576h-209z" />
<glyph unicode="u" horiz-adv-x="1462" d="M90 317v740h479v-793q0 -8 6.5 -20.5t14.5 -20.5q4 -4 20 -12q8 -4 23 -4h217q4 0 20 4q14 4 21 10l12 19q6 9 6 18v797h488v-1055h-1022q-35 0 -66 6q-25 4 -55 21q-33 20 -47 32q-23 18 -41 41q-16 18 -33 50q-15 28 -24 55q-6 18 -15 55q-4 18 -4 57z" />
<glyph unicode="v" horiz-adv-x="1378" d="M-20 1057h528l305 -789l293 789h211l-397 -1057h-517z" />
<glyph unicode="w" horiz-adv-x="1990" d="M4 1053h488l174 -670l157 670h561l166 -674l170 674h178l-237 -1053h-506l-192 805l-191 -805h-506z" />
<glyph unicode="x" horiz-adv-x="1505" d="M4 0l481 449l-446 606h620l191 -267l268 269h314l-459 -432l463 -625h-629l-205 283l-311 -283h-287z" />
<glyph unicode="y" horiz-adv-x="1441" d="M90 326v731h483v-785q0 -4 5 -20q2 -10 12 -21q10 -12 20 -18q8 -4 23 -4h217q12 0 18 4q8 6 15 14q4 8 8 21q4 16 4 18v785h479v-1196q0 -14 -4 -43q-2 -14 -10 -43l-19 -43q-14 -23 -24 -37q-14 -18 -33 -33q-20 -16 -41 -29q-14 -6 -47 -14q-25 -6 -53 -6h-993v203 h671q15 0 31 6q20 8 25 12l12 18q6 10 6 23v131h-522q-43 0 -70 8q-33 10 -59 25q-33 18 -51 37q-14 14 -43 51q-10 14 -25 43l-19 49q-8 23 -12 55q-4 38 -4 58z" />
<glyph unicode="z" horiz-adv-x="1384" d="M33 0l571 848h-524v205h1237l-555 -840h559v-213h-1288z" />
<glyph unicode="{" horiz-adv-x="892" d="M16 618l181 205v301q0 27 6 54q8 33 18 55q10 25 31 51q12 16 41 49q29 29 45 41q33 25 49 33q10 6 53 20q25 8 56 9h356v-215h-190q-12 0 -33 -11q-18 -8 -29 -22q-14 -16 -20 -31q-8 -16 -9 -33v-301l-180 -205l180 -204v-330q0 -14 11 -35q8 -16 20 -29 q14 -14 30.5 -22t35.5 -8h184v-215h-324q-41 0 -71 10q-43 14 -72 29q-45 25 -55 32q-16 12 -45 41q-22 22 -37 43q-20 29 -28.5 43.5t-16.5 46.5q-6 25 -6 48v346z" />
<glyph unicode="|" horiz-adv-x="344" d="M117 0v1436h213v-1436h-213z" />
<glyph unicode="}" horiz-adv-x="892" d="M16 -10h185q16 0 32.5 8t30.5 22q14 10 23 29q10 20 10 35v330l178 204l-178 205v301q0 16 -8 33t-23 31q-8 10 -28 22q-16 10 -31 11h-191v215h357q29 0 53 -9q43 -14 53 -20q23 -10 51 -33q16 -12 45 -41q14 -16 39 -49q14 -18 29 -51q16 -25 23 -55q6 -27 6 -54v-301 l180 -205l-180 -204v-346q0 -23 -6 -48q-4 -20 -21 -47q-9 -22 -24.5 -43t-36.5 -43q-23 -23 -47 -41q-10 -8 -56 -32q-23 -12 -71 -29q-31 -10 -72 -10h-322v215z" />
<glyph unicode="~" horiz-adv-x="1107" d="M176 524q25 55 45 84q25 34 55 56q37 25 64 32q35 10 70 13q27 0 51 -7q23 -6 51 -16l15.5 -5t17.5 -6t16 -7l53 -27l52 -25q20 -10 53 -22l51 -19q27 -8 53 -12q10 -2 35 6q12 4 33 17q20 16 29 26l12 12.5t12 14.5l115 -111q-27 -41 -68 -92q-18 -23 -53 -53 q-25 -18 -51 -25q-20 -4 -66 -8q-27 0 -51 6q-16 4 -49 17q-25 8 -51 22l-52 25l-53 26.5t-51 22.5q-43 16 -53 18q-28 6 -55 7q-14 0 -33 -7q-4 -2 -33 -18q-20 -16 -28.5 -24.5t-24.5 -28.5z" />
<glyph unicode="&#xa1;" horiz-adv-x="628" d="M113 1055v379h487v-379h-487zM115 0v602l47 371h393l45 -400v-573h-485z" />
<glyph unicode="&#xa2;" horiz-adv-x="1054" d="M117 539v366q0 16 4 49q4 37 10 52q12 33 20.5 49t30.5 43q20 20 33 30q14 12 43 23q25 8 39 10q29 4 41 4h158l-2 226h176v-226h336v-174h-406q-14 0 -27 -6q-16 -8 -22 -14q-12 -10 -21 -25q-6 -12 -6 -24v-398q0 -14 8 -24q12 -16 19 -23q8 -6 24 -14q12 -6 27 -6h404 v-174h-336v-234h-176l2 234h-144q-37 0 -63 6q-33 6 -53 20q-25 14 -41 31q-23 23 -33 37q-12 20 -21 37q-8 18 -14 41q0 8 -4 22.5t-4 20.5q-2 14 -2 41z" />
<glyph unicode="&#xa3;" horiz-adv-x="1337" d="M20 625v182h105v379q0 31 2 45q4 29 8 43q8 29 15 43q8 16 20 37q8 12 33 32q18 15 43 25q31 12 55 16q31 6 70 7h633q20 0 40 -7q25 -6 39 -16q25 -16 37 -27q18 -14 33 -32q14 -16 27 -39q12 -20 20 -41q12 -29 14 -43q4 -29 5 -43v-154h-373v103q0 10 -4 16 q-8 12 -15 18l-26 19q-14 8 -31 8h-65q-18 0 -29 -4q-16 -6 -26.5 -16.5t-14.5 -18.5t-4 -22v-328h100v-176h-100v-398h645v-231h-1151v623h-105z" />
<glyph unicode="&#xa4;" horiz-adv-x="1273" d="M16 10v455h201q31 0 49 -8q14 -6 39 -23q20 -14 34.5 -30.5t25.5 -41.5q12 -27 20 -63q6 -29 6 -57q0 -20 -8 -58q-6 -31 -18 -59q-14 -51 -56 -82q-39 -29 -94 -33h-49h-49h-49h-52zM78 61q23 0 63 -4q39 -4 58 -2q33 4 51 15q25 14 41 41q16 23 31 67q12 37 12 78 q0 35 -17 74q-14 37 -45 57q-23 16 -45 22.5t-47 6.5q-33 0 -49 -2t-53 -2v-351zM438 231q0 51 13 91q12 41 43 77q20 25 38 39q14 12 39 23q14 6 43 10q14 2 54 2q2 0 21.5 -2t29.5 -4q25 -6 43 -16.5t37 -28.5q16 -16 28 -41q4 -8 13 -29q4 -10 4 -26h-29h-27l-10 30 q-4 14 -10 25q-4 6 -20 14q-10 6 -35 14.5t-37 10.5q-25 4 -37 2q-25 -4 -37 -8t-35 -23q-14 -8 -26 -24q-14 -18 -22.5 -37t-14.5 -41q-4 -14 -8 -43q-4 -23 0 -45q4 -29 8 -43q8 -25 16 -39q10 -16 29 -31q20 -20 49 -33q23 -10 55 -10q28 0 56 12q29 12 49 33 q12 12 18 25q2 4 6 11t6 11q6 12 7 29q0 4 1 15.5t1 17.5h-142v51h197v-240h-39l-14 58q-4 -2 -10.5 -10.5t-8.5 -10.5t-10 -8t-10 -8q-8 -8 -21 -15q-10 -4 -26 -8l-31 -6q-10 -2 -29 -2h-28q-10 0 -31 4q-43 6 -66 23q-31 20 -51 49q-18 31 -28.5 75.5t-10.5 79.5zM922 10 v455h59v-402h233v-53h-292z" />
<glyph unicode="&#xa5;" horiz-adv-x="1619" d="M4 1436h592l358 -590l334 590h258l-284 -496l147 2v-188h-254l-98 -174h352v-183h-379v-397h-500v397h-366v185h350l-102 174h-250v188l137 -2z" />
<glyph unicode="&#xa7;" horiz-adv-x="1296" d="M127 276v299q0 41 10 72q12 39 33 68q14 20 43 41q20 16 59 22q-29 8 -51 18.5t-41 26.5q-20 18 -39 51q-14 27 -14 58v291q0 45 14 80q12 29 43 63q16 20 35 31q29 16 43 22q22 9 43 13q29 4 45 4h834v-205h-666q-2 0 -18.5 -4t-22.5 -8q-6 -2 -12 -13q-6 -9 -6 -18v-94 q0 -16 4 -23q8 -12 12 -16q12 -8 19 -11q12 -4 16 -4h491q14 0 48 -4q4 0 45 -12q22 -6 43 -18q23 -12 39 -27q25 -23 45 -66q16 -35 16 -94v-272v-43l-6 -43q-2 -20 -12 -39q-12 -25 -21 -39q-14 -20 -39 -41q-16 -14 -53 -33q37 -22 61 -43q23 -20 41 -49q16 -27 23 -53 q6 -29 6 -60v-251q0 -53 -18 -101q-18 -45 -48 -78q-35 -39 -67 -53q-35 -16 -82 -16h-834v205h662q2 0 18 4q4 2 12.5 5t10.5 3q4 4 12 14q6 8 6 17v141q0 8 -4 14l-12 15q-4 6 -16.5 10t-18.5 4h-496q-49 0 -90 16.5t-77 52.5q-33 33 -50 72q-18 43 -18 98zM459 475 q0 -8 4 -20q4 -8 10 -16.5t16 -12.5q12 -4 21 -4h342q10 0 22 4q10 4 16.5 10t10.5 18.5t4 20.5v125q0 8 -4 20.5t-8 18.5q-6 6 -18.5 10t-22.5 4h-342q-6 0 -18 -4q-6 -2 -19 -10q-6 -8 -10 -16q-4 -12 -4 -23v-125z" />
<glyph unicode="&#xa8;" horiz-adv-x="802" d="M-53 1202v291h350v-291h-350zM414 1202v291h352v-291h-352z" />
<glyph unicode="&#xa9;" horiz-adv-x="1576" d="M129 725q0 76 14 139q14 61 41 129q20 53 64 117q33 49 84 100q43 45 100 84q59 41 119 64q68 27 129 41q53 12 135 12q86 0 139 -12q61 -14 129 -41q53 -23 117 -64q63 -43 103 -84q45 -45 81 -100q41 -59 66 -117q23 -53 41 -129q12 -53 12 -139q0 -84 -12 -137 q-18 -76 -41 -129q-25 -57 -66 -117q-35 -51 -81 -102q-45 -43 -105 -82q-66 -43 -115 -64q-68 -27 -129 -41q-53 -12 -139 -12q-82 0 -135 12q-61 14 -129 41q-59 25 -119 64q-55 37 -100 82q-47 47 -84 102q-43 63 -64 117q-27 68 -41 129q-14 63 -14 137zM330 721 q0 -43 10 -98q8 -45 29 -93q20 -49 45 -84q29 -41 57 -69q41 -41 74 -62q49 -31 84 -45q47 -20 90 -28q51 -10 98 -11q43 0 98 11q45 8 93 28q29 12 82 45q27 16 71 62q43 39 62 69q31 49 45 84q20 47 28 93q10 55 11 98q0 41 -11 96q-8 45 -28 92q-14 35 -45 84 q-23 37 -62 72q-31 33 -71 59q-37 27 -82 45q-47 20 -93 29q-55 10 -98 10q-47 0 -98 -10q-43 -8 -90 -29q-49 -20 -84 -45q-47 -33 -74 -59q-25 -25 -57 -72q-25 -35 -45 -84q-20 -47 -29 -92q-10 -55 -10 -96zM522 545v352q0 27 10 61q2 6 11 29q4 10 16 27q14 20 37 33 q27 18 57 18h404v-115h-260q-6 0 -14.5 -4t-10.5 -6q-4 -4 -8 -12t-4 -13v-389q0 -4 4 -12q2 -4 10 -12q2 -2 10.5 -6t14.5 -4h268v-113h-403q-37 0 -62 12l-24 19q-16 12 -23 20q-6 6 -14 23q-8 14 -11 28l-6 31q-2 10 -2 33z" />
<glyph unicode="&#xaa;" d="M63 358v60q0 23 5 63q0 4 12 64q6 35 18 57q20 37 35 51q23 23 51 37q27 12 54 19q31 6 65 6h498q12 0 26 8q20 12 27 20q4 4 12 21q6 12 6 22q0 12 -6 25q-2 4 -16 18q-10 10 -22.5 16.5t-22.5 6.5h-662v207h922q29 0 74 -8q37 -6 61 -21q37 -18 55 -37q25 -25 39 -47 q14 -20 27 -51q8 -18 16 -55q12 -49 15 -76q2 -25 2 -72v-688h-428l-29 113q-4 -16 -8 -23q-6 -8 -8 -16q-6 -12 -15 -21l-16 -16q-25 -20 -45 -29q-23 -8 -55 -8h-447q-37 0 -63 6q-29 6 -54 19q-29 14 -45 30.5t-32 42.5q-14 25 -25 60q-12 47 -14 63q-4 45 -4 70 q0 12 -1.5 32.5t-1.5 30.5zM551 276q0 -12 4 -20q2 -2 5 -10l5 -13q9 -9 25 -18q10 -6 26 -6h193q8 0 20.5 6t22.5 16q4 4 12 21q6 12 6 20v238h-235q-18 0 -33 -8q-16 -10 -27 -21q-12 -16 -18 -26.5t-6 -28.5v-150z" />
<glyph unicode="&#xad;" horiz-adv-x="1193" d="M82 428v211h266h262h260h269v-211h-529h-528z" />
<glyph unicode="&#xae;" horiz-adv-x="1576" d="M129 725q0 76 14 139q14 61 41 129q20 53 64 117q33 49 84 100q43 45 100 84q59 41 119 64q68 27 129 41q53 12 135 12q86 0 139 -12q61 -14 129 -41q53 -23 117 -64q63 -43 103 -84q45 -45 81 -100q41 -59 66 -117q23 -53 41 -129q12 -53 12 -139q0 -84 -12 -137 q-18 -76 -41 -129q-25 -57 -66 -117q-35 -51 -81 -102q-45 -43 -105 -82q-66 -43 -115 -64q-68 -27 -129 -41q-53 -12 -139 -12q-82 0 -135 12q-61 14 -129 41q-59 25 -119 64q-55 37 -100 82q-47 47 -84 102q-43 63 -64 117q-27 68 -41 129q-14 63 -14 137zM328 725 q0 -41 10 -96q8 -45 29 -92q14 -35 45 -84q23 -35 59 -70q41 -41 74 -61q53 -33 82 -46q47 -20 92 -28q55 -10 96 -10q49 0 100 10q43 8 91 28q35 14 84 46q27 16 71 61q37 37 60 70q25 35 45 84q20 47 28 92q10 55 11 96q0 43 -11 98q-8 45 -28 92q-20 49 -45 84 q-23 33 -60 70q-45 45 -71 61q-49 31 -84 46q-47 20 -91 28q-51 10 -100 10q-41 0 -96 -10q-45 -8 -92 -28q-29 -12 -82 -46q-33 -20 -74 -61q-37 -35 -59 -70q-31 -49 -45 -84q-20 -47 -29 -92q-10 -55 -10 -98zM518 385v682h443q37 0 55 -8q23 -8 39 -31q14 -20 20 -49 q6 -25 6 -27v-30v-140v-20q0 -8 -4 -21q0 -6 -4 -18q-2 -8 -8 -16q-2 -4 -10 -13q-6 -6 -15 -8q-4 -2 -10 -2t-8 -2q-6 -2 -25 -2l119 -295h-227l-98 295h-66v-295h-207zM725 795h129q12 0 18 8q2 2 2 8q0 2 1.5 6t1.5 8v105q0 6 -3 10q-4 8 -6 10t-8 2q-2 0 -5 1l-3 1h-127 v-159z" />
<glyph unicode="&#xb2;" horiz-adv-x="1546" d="M119 0v678q0 35 2 53q6 51 6 53q4 23 12 41l19 37q16 20 28 31q14 12 39 22q12 8 37 15q4 0 45 6l619 33q14 0 20 4q2 2 9.5 5t11.5 7l12 19q4 6 4 20v141q0 10 -4 15q-8 8 -14 10l-19 6q-6 2 -18 2h-781v238h1035q39 0 57 -4.5t59 -16.5q31 -10 54 -24q33 -20 49 -37 q20 -16 35 -41q14 -23 24 -53q9 -25 13 -50q4 -33 4 -55v-381q0 -14 -4 -43q-4 -25 -9 -39q-6 -18 -14 -35l-11 -16t-9 -14l-25 -31q-16 -16 -33 -25l-43 -18q-18 -8 -45 -8l-571 -31q-6 0 -19.5 -1t-19.5 -3q-18 -3 -31 -12q-6 -6 -18 -21q-8 -10 -9 -35v-206h828v-236 h-1325z" />
<glyph unicode="&#xb3;" horiz-adv-x="1517" d="M184 1198v236h977q37 0 56 -2q23 -2 53 -11q37 -8 53 -16q39 -20 49 -27l12 -11q12 -11 19 -19q12 -14 22 -39q12 -27 17 -49q4 -18 4 -62v-301q0 -35 -14 -61q-14 -25 -39 -48q-29 -20 -47 -28q-6 -2 -26 -12.5t-32 -14.5q43 -10 66 -24q33 -18 51 -41q16 -18 31 -56 q10 -27 10 -69v-324q0 -16 -4 -45q-3 -22 -12 -43q-10 -27 -19 -37q-12 -18 -25 -31q-10 -10 -34 -26q-20 -12 -37 -21q-18 -10 -39 -12q-29 -4 -41 -4h-1049v238h711q12 0 21 6q10 8 14 12q9 9 12 18q4 12 4 19v270q0 9 -6 19t-12 12q-14 10 -17 10q-12 4 -18 4h-500v236 h496q6 0 18 4q8 2 16.5 8t14.5 14q6 10 6 17v264q0 9 -6 18q-6 8 -14 15q-14 10 -17 10q-12 4 -18 4h-707z" />
<glyph unicode="&#xb4;" horiz-adv-x="614" d="M-78 1192l326 328h340l-350 -328h-316z" />
<glyph unicode="&#xb6;" horiz-adv-x="1165" d="M-18 1044.5q0 100.5 30 174.5q29 72 88 122q55 49 133 74t164 25h715v-1829h-238v1028h-198v-1034h-244v1034q-84 -2 -176 25q-78 23 -141 73q-66 53 -99 127q-34 80 -34 180.5z" />
<glyph unicode="&#xb7;" horiz-adv-x="706" d="M348 719q0 33 12 63q10 27 35 52q23 23 54 34q35 14 63.5 14.5t62.5 -14.5q31 -12 54 -34q25 -25 35 -52q12 -31 12 -63q0 -35 -12 -66q-10 -27 -35 -51q-20 -25 -54 -37q-31 -12 -63.5 -12t-62.5 12q-33 12 -54 37q-25 25 -35 51q-12 31 -12 66z" />
<glyph unicode="&#x2219;" horiz-adv-x="706" d="M348 719q0 33 12 63q10 27 35 52q23 23 54 34q35 14 63.5 14.5t62.5 -14.5q31 -12 54 -34q25 -25 35 -52q12 -31 12 -63q0 -35 -12 -66q-10 -27 -35 -51q-20 -25 -54 -37q-31 -12 -63.5 -12t-62.5 12q-33 12 -54 37q-25 25 -35 51q-12 31 -12 66z" />
<glyph unicode="&#xb8;" horiz-adv-x="598" d="M160 -123h49l72 123h139l-72 -125h117q20 0 29 -2q16 -4 22 -8q10 -2 21 -12q4 -4 8 -10.5t8 -8.5q8 -12 14 -37q4 -29 4 -39v-168v-24l-6 -25l-10 -20q-8 -16 -12 -21q-10 -10 -17 -14q-12 -8 -20 -10q-2 0 -8 -2t-9 -4q-6 -2 -20 -2h-309v79h188q4 0 12 4q10 6 13 9 q4 2 8 10t4 12v185q0 2 -4 10q-2 4 -8 10l-13 6q-4 2 -12 2h-188v82z" />
<glyph unicode="&#xb9;" horiz-adv-x="1120" d="M389 997v254l563 185h117v-1432h-496v993h-184z" />
<glyph unicode="&#xba;" horiz-adv-x="1445" d="M61 264v508q0 35 2 51q4 33 7 47q10 39 20 62q12 27 29 47q16 18 39 35q14 10 43 22q25 9 49 13q33 4 49 4h836q18 0 55 -4q23 -2 49 -13q29 -10 43 -20q20 -14 39 -35q23 -33 29 -45q10 -25 20 -64q2 -14 6 -47q2 -16 2 -55v-498q0 -23 -4 -59q-4 -33 -8 -51 q-10 -31 -20 -51q-14 -29 -27 -41q-14 -16 -35 -31q-16 -10 -39 -21q-33 -12 -53 -14q-37 -4 -57 -4h-824q-31 0 -61 6q-35 6 -60 21q-29 16 -43 26q-16 12 -34 37l-27 43q-8 18 -16 55l-7 35q-2 12 -2 41zM547 272q0 -10 6 -22q8 -16 12 -21q12 -12 20.5 -16t20.5 -4h230 q12 0 20 4q12 6 20.5 14.5t14.5 20.5t6 20v520q0 10 -6 21q-8 12 -12 16q-6 6 -19 15q-6 4 -18 4h-264q-6 0 -13 -6q-8 -8 -10 -15l-4 -8t-2 -8q-2 -6 -2 -16v-519z" />
<glyph unicode="&#xbc;" horiz-adv-x="2387" d="M92 1174v151l336 111h70v-858h-295v596h-111zM541 0l741 1436h289l-750 -1436h-280zM1323 193v210l471 455h348v-442h135v-223h-137v-193h-291v193h-526zM1542 420h305v285z" />
<glyph unicode="&#xbd;" horiz-adv-x="2385" d="M92 1174v151l336 111h70v-858h-295v596h-111zM541 0l741 1436h289l-750 -1436h-280zM1460 0v406v32l6 31l2 10q2 10 5 15q8 16 12 22q2 4 8 10t8 9q12 12 23 16q6 2 22 6q8 2 29 2l369 21q4 0 12 4t12 8q6 6 8 10q4 8 4 12v84q0 6 -4 11q-2 0 -4 2l-4 4q-4 2 -12 2 q-2 0 -6 1l-4 1h-467v141h618q23 0 35 -2q25 -4 35 -8q12 -4 33 -16q16 -10 28 -23q10 -8 21 -25q6 -10 14 -30q4 -10 8 -31q2 -10 2 -31v-229q0 -18 -2 -27q-4 -16 -6 -22q-6 -20 -6 -23q-2 -4 -6 -8t-6 -8q-4 -6 -17 -19q-6 -6 -18 -14q-4 -4 -27 -12q-14 -6 -26 -6 l-342 -19q-16 0 -24.5 -2t-17 -6t-12.5 -12q-6 -8 -6 -23v-123h498v-141h-795z" />
<glyph unicode="&#xbe;" horiz-adv-x="2387" d="M-12 1294v140h581h33q4 0 10 -1t13.5 -3.5t11.5 -2.5q10 -2 31 -10q10 -4 26 -16l19 -19q8 -8 14 -24q8 -14 10 -29q2 -10 2 -35v-180q0 -25 -8 -39t-24 -26q-2 0 -27 -17q-6 -4 -18.5 -9t-16.5 -7q14 -2 39 -15q18 -9 31 -24q12 -14 18 -35q6 -18 6 -41v-190 q0 -20 -2 -29q0 -4 -4 -13.5t-4 -13.5q-8 -18 -24 -39q-14 -14 -23 -18l-20 -10q-27 -10 -50 -10h-622v143h422q8 0 12 2q6 2 8 8q4 2 8 10q2 4 2 11v163q0 2 -4 11q-2 4 -6 8q-2 0 -5 2t-5 2q-8 4 -12 4h-297v139h295q8 0 12 2q2 2 5 4.5t5 2.5l2 4q2 4 4 4q4 4 4 10v158 q0 4 -4 12q-2 4 -6 8q-2 0 -5 2t-5 4q-4 2 -12 2h-420zM541 0l741 1436h289l-750 -1436h-280zM1323 193v210l471 455h348v-442h135v-223h-137v-193h-291v193h-526zM1542 420h305v285z" />
<glyph unicode="&#xbf;" horiz-adv-x="1415" d="M70 250v272q0 18 6 41q8 29 14 43q6 12 21 39q12 23 26 39q14 18 33 33q18 15 37 24q27 14 39 19q20 6 41 6h209q18 0 30 4q14 4 31 14q14 8 24.5 22.5t10.5 27.5v131h502v-211q0 -8 -4 -37q-2 -18 -13 -41q-12 -27 -18 -39q-16 -29 -25 -37l-30 -31q-16 -16 -33 -24 q-18 -10 -35 -17q-18 -6 -39 -6h-250q-8 0 -24.5 -6t-26.5 -14q-14 -12 -21 -19q-8 -10 -8 -22v-201q0 -12 11 -22q12 -12 20 -19q12 -6 29 -10q20 -4 26 -4h697v-205h-1014q-20 0 -45 6q-20 6 -47 17q-23 8 -45 24l-41 31q-10 10 -35 39q-18 20 -27 41q-10 18 -18 45 q-8 29 -8 47zM608 1061v375h486v-375h-486z" />
<glyph unicode="&#xc0;" horiz-adv-x="1759" d="M-4 0l637 1430h502l542 -1430h-534l-150 381h-581l-174 -381h-242zM479 1804h340l330 -329h-320zM518 621h393l-192 487z" />
<glyph unicode="&#xc1;" horiz-adv-x="1759" d="M-4 0l637 1430h502l542 -1430h-534l-150 381h-581l-174 -381h-242zM518 621h393l-192 487zM614 1475l330 329h340l-352 -329h-318z" />
<glyph unicode="&#xc2;" horiz-adv-x="1759" d="M-4 0l637 1430h502l542 -1430h-534l-150 381h-581l-174 -381h-242zM467 1481l244 323h350l244 -323h-320l-100 166l-119 -166h-299zM518 621h393l-192 487z" />
<glyph unicode="&#xc3;" horiz-adv-x="1759" d="M-4 0l637 1430h502l542 -1430h-534l-150 381h-581l-174 -381h-242zM471 1479q4 33 8 49q0 4 4 23.5t9 29.5q12 37 20 53l31 49q10 16 35 46q12 14 40 34q14 10 52 23q25 8 55 8q41 0 84 -12q37 -10 84 -29q41 -16 80 -29q41 -14 67 -16q29 -4 47 23q20 27 29 63h164 q-2 -16 -6 -53q-2 -23 -10 -53q-10 -39 -15 -52q-10 -27 -20 -45t-31 -39q-16 -16 -41 -30q-27 -14 -53 -21q-41 -8 -70 -8q-14 0 -42.5 4t-43.5 8q-6 2 -20.5 7.5t-22.5 7.5q-12 4 -22.5 8t-20.5 6q-29 8 -43 14l-37 15l-30 10q-20 4 -27 4q-12 2 -29 -8q-10 -6 -24 -25 q-10 -14 -20.5 -32.5t-12.5 -32.5h-168zM518 621h393l-192 487z" />
<glyph unicode="&#xc4;" horiz-adv-x="1759" d="M-4 0l637 1430h502l542 -1430h-534l-150 381h-581l-174 -381h-242zM465 1481v288h350v-288h-350zM518 621h393l-192 487zM936 1481v288h350v-288h-350z" />
<glyph unicode="&#xc5;" horiz-adv-x="1759" d="M-4 0l637 1430h502l542 -1430h-534l-150 381h-581l-174 -381h-242zM518 621h393l-192 487zM698 1663q0 39 15 70q16 37 38.5 59.5t57.5 38.5q27 12 72 12q43 0 69 -12q33 -16 58 -39q23 -23 39 -59.5t16 -69.5q0 -35 -16 -72q-14 -35 -39 -57.5t-58 -38.5 q-31 -14 -69 -14q-41 0 -72 14q-35 16 -57.5 38.5t-38.5 57.5q-15 31 -15 72zM795 1663q0 -20 6 -34.5t18 -27t27 -18.5q10 -4 35 -4q23 0 32 4q14 6 26.5 18.5t19 26.5t6.5 35q0 16 -7 33q-6 14 -18 26.5t-27 18.5q-20 8 -32 8q-14 0 -35 -8q-14 -6 -26.5 -18.5 t-18.5 -26.5q-6 -17 -6 -33z" />
<glyph unicode="&#xc6;" horiz-adv-x="2103" d="M-63 0l788 1434h1266v-232h-600v-344h583v-233h-583v-392h614v-231h-1120l2 379h-490l-190 -381h-270zM506 618h381v629z" />
<glyph unicode="&#xc7;" horiz-adv-x="1288" d="M88 344v739q0 47 4 68q10 47 14 63q14 37 27 64q14 29 33 53q25 29 37 41q16 16 41 31q25 16 59 27q27 8 66 8h841v-236h-548q-8 0 -25 -8q-12 -6 -23 -16q-12 -12 -18 -24.5t-6 -25.5v-821q0 -8 8 -24q6 -14 18 -23q18 -14 25 -16q14 -6 29 -6h561v-238h-451l-69 -123 h123q20 0 36 -8q8 -4 31 -27q14 -16 24.5 -40.5t10.5 -43.5v-172q0 -25 -8 -43q-10 -25 -23 -39q-16 -20 -26 -26q-16 -10 -35 -10h-322v79h197l8 4q4 2 8 7q6 6 8 10t2 8v195q0 2 -4 10l-8 8q-2 2 -6 2t-6 2q-4 2 -12 2h-185l-2 82h47l70 123h-254q-33 0 -66 6 q-29 6 -63 23q-45 29 -51 32q-16 12 -45 45q-15 22 -31 50q-10 18 -23 59q-4 14 -14 61q-4 21 -4 68z" />
<glyph unicode="&#xc8;" horiz-adv-x="1282" d="M104 2v1432h1106v-232h-600v-344h584v-233h-584v-392h615v-231h-1121zM338 1810h340l330 -329h-318z" />
<glyph unicode="&#xc9;" horiz-adv-x="1282" d="M104 2v1432h1106v-232h-600v-344h584v-233h-584v-392h615v-231h-1121zM338 1481l330 329h340l-353 -329h-317z" />
<glyph unicode="&#xca;" horiz-adv-x="1282" d="M104 2v1432h1106v-232h-600v-344h584v-233h-584v-392h615v-231h-1121zM268 1481l244 323h350l244 -323h-315l-103 166l-121 -166h-299z" />
<glyph unicode="&#xcb;" horiz-adv-x="1282" d="M104 2v1432h1106v-232h-600v-344h584v-233h-584v-392h615v-231h-1121zM244 1481v288h352v-288h-352zM715 1481v288h350v-288h-350z" />
<glyph unicode="&#xcc;" horiz-adv-x="780" d="M78 1810h340l327 -329h-317zM141 0v1430l504 4v-1434h-504z" />
<glyph unicode="&#xcd;" horiz-adv-x="780" d="M78 1481l328 329h339l-350 -329h-317zM141 0v1430l504 4v-1434h-504z" />
<glyph unicode="&#xce;" horiz-adv-x="856" d="M-18 1481l241 323h350l244 -323h-317l-103 166l-116 -166h-299zM141 0v1430l504 4v-1434h-504z" />
<glyph unicode="&#xcf;" horiz-adv-x="843" d="M-14 1481v288h350v-288h-350zM141 0v1430l504 4v-1434h-504zM455 1481v288h350v-288h-350z" />
<glyph unicode="&#xd0;" horiz-adv-x="1536" d="M-20 623v237h124v574h1037q20 0 57 -4q31 -4 57 -13q41 -10 70 -28q37 -23 59 -50q16 -16 37 -51q18 -29 27 -65q2 -8 12 -62q6 -35 6 -69v-744q0 -27 -4 -72q-3 -34 -12 -61q-8 -35 -25 -63q-20 -37 -34 -52q-23 -27 -45 -43q-20 -14 -52 -26q-41 -16 -73 -23 q-37 -6 -76 -6h-1041v621h-124zM610 233h291q14 0 25 9q6 6 18 20q4 4 12 25q6 16 7 24v832q0 9 -7 18q-4 6 -16 19q-8 8 -20 14q-8 4 -23 4h-287v-336h193v-239h-193v-390z" />
<glyph unicode="&#xd1;" horiz-adv-x="1605" d="M109 4v1432h653l545 -1172v1172h223v-1432h-653l-553 1194v-1194h-215zM422 1479l6 49q4 27 12 53q8 25 23 53q16 33 26 49q14 23 37 46q14 14 43 34q12 8 49 23q23 8 56 8q41 0 84 -12l84 -29l80 -29q41 -14 67 -16q29 -4 47 23q23 31 31 63h164l-8 -53q-2 -23 -11 -53 q-10 -39 -14 -52q-10 -27 -20.5 -45t-31 -38.5t-40.5 -30.5q-33 -16 -53 -21q-41 -8 -70 -8q-12 0 -41 4q-33 4 -45 8q-8 2 -22.5 7.5t-20.5 7.5l-23.5 8t-19.5 6q-23 6 -41 14l-37 15q-29 10 -33 10q-20 4 -26 4q-12 2 -31 -8q-10 -6 -25 -25q-6 -6 -18 -33q-6 -12 -10 -32 h-168z" />
<glyph unicode="&#xd2;" horiz-adv-x="1585" d="M92 358v709q0 57 4 82q8 49 15 70q8 33 24 65q16 31 33 51q23 27 45 43q25 18 49 31q29 14 72 21q37 6 76 6h782q37 0 71.5 -6.5t63.5 -20.5q39 -16 62 -33q27 -20 49 -53q23 -29 37 -63q14 -37 24 -84q8 -39 10 -68q2 -25 2 -80v-616q0 -33 -4 -86q-2 -39 -12 -76 q-12 -53 -22 -80q-14 -35 -37 -64q-37 -45 -78 -69q-33 -16 -63.5 -24.5t-73.5 -8.5h-840q-37 0 -63.5 6t-55.5 21q-37 18 -57 39q-29 29 -47 55l-29 53q-6 14 -20 62q-10 31 -13 59q-4 41 -4 59zM451 1810h342l327 -329h-317zM590 309q0 -16 8 -26q12 -16 18 -23 q18 -14 25 -16q20 -8 29 -8h268q16 0 27 8q16 12 22 20q10 10 16.5 24.5t6.5 26.5v807q0 12 -6 29q-4 12 -19 23q-16 16 -22 18q-16 6 -27 6h-256q-20 0 -35 -6q-4 -2 -27 -18q-14 -14 -20 -33q-8 -25 -8 -37v-795z" />
<glyph unicode="&#xd3;" horiz-adv-x="1585" d="M92 358v709q0 57 4 82q8 49 15 70q8 33 24 65q16 31 33 51q23 27 45 43q25 18 49 31q29 14 72 21q37 6 76 6h782q37 0 71.5 -6.5t63.5 -20.5q39 -16 62 -33q27 -20 49 -53q23 -29 37 -63q14 -37 24 -84q8 -39 10 -68q2 -25 2 -80v-616q0 -33 -4 -86q-2 -39 -12 -76 q-12 -53 -22 -80q-14 -35 -37 -64q-37 -45 -78 -69q-33 -16 -63.5 -24.5t-73.5 -8.5h-840q-37 0 -63.5 6t-55.5 21q-37 18 -57 39q-29 29 -47 55l-29 53q-6 14 -20 62q-10 31 -13 59q-4 41 -4 59zM451 1481l329 329h340l-350 -329h-319zM590 309q0 -16 8 -26q12 -16 18 -23 q18 -14 25 -16q20 -8 29 -8h268q16 0 27 8q16 12 22 20q10 10 16.5 24.5t6.5 26.5v807q0 12 -6 29q-4 12 -19 23q-16 16 -22 18q-16 6 -27 6h-256q-20 0 -35 -6q-4 -2 -27 -18q-14 -14 -20 -33q-8 -25 -8 -37v-795z" />
<glyph unicode="&#xd4;" horiz-adv-x="1585" d="M92 358v709q0 57 4 82q8 49 15 70q8 33 24 65q16 31 33 51q23 27 45 43q25 18 49 31q29 14 72 21q37 6 76 6h782q37 0 71.5 -6.5t63.5 -20.5q39 -16 62 -33q27 -20 49 -53q23 -29 37 -63q14 -37 24 -84q8 -39 10 -68q2 -25 2 -80v-616q0 -33 -4 -86q-2 -39 -12 -76 q-12 -53 -22 -80q-14 -35 -37 -64q-37 -45 -78 -69q-33 -16 -63.5 -24.5t-73.5 -8.5h-840q-37 0 -63.5 6t-55.5 21q-37 18 -57 39q-29 29 -47 55l-29 53q-6 14 -20 62q-10 31 -13 59q-4 41 -4 59zM387 1481l244 323h350l244 -323h-318l-100 166l-119 -166h-301zM590 309 q0 -16 8 -26q12 -16 18 -23q18 -14 25 -16q20 -8 29 -8h268q16 0 27 8q16 12 22 20q10 10 16.5 24.5t6.5 26.5v807q0 12 -6 29q-4 12 -19 23q-16 16 -22 18q-16 6 -27 6h-256q-20 0 -35 -6q-4 -2 -27 -18q-14 -14 -20 -33q-8 -25 -8 -37v-795z" />
<glyph unicode="&#xd5;" horiz-adv-x="1585" d="M92 358v709q0 57 4 82q8 49 15 70q8 33 24 65q16 31 33 51q23 27 45 43q25 18 49 31q29 14 72 21q37 6 76 6h782q37 0 71.5 -6.5t63.5 -20.5q39 -16 62 -33q27 -20 49 -53q23 -29 37 -63q14 -37 24 -84q8 -39 10 -68q2 -25 2 -80v-616q0 -33 -4 -86q-2 -39 -12 -76 q-12 -53 -22 -80q-14 -35 -37 -64q-37 -45 -78 -69q-33 -16 -63.5 -24.5t-73.5 -8.5h-840q-37 0 -63.5 6t-55.5 21q-37 18 -57 39q-29 29 -47 55l-29 53q-6 14 -20 62q-10 31 -13 59q-4 41 -4 59zM393 1479q0 25 6 51q6 33 15 51q18 49 20 53q8 16 29 49q10 16 35 46 q12 14 41 34q14 10 51 23q25 8 55 8q41 0 84 -12q37 -10 84 -29q39 -16 80 -29q41 -14 70 -16q27 -2 45 23q20 27 28 63h164q-2 -16 -6 -53q-2 -23 -10 -53q-10 -39 -15 -52q-10 -27 -20 -45t-30.5 -38.5t-41.5 -30.5q-33 -16 -53 -21q-41 -8 -70 -8q-12 0 -41 4 q-14 2 -43 10l-45 13l-23 8t-20 6q-23 6 -41 14q-20 8 -36 15q-29 10 -33 10q-20 4 -27 4q-10 2 -29 -8q-10 -6 -24 -25q-10 -14 -20.5 -32.5t-12.5 -32.5h-166zM590 309q0 -16 8 -26q12 -16 18 -23q18 -14 25 -16q20 -8 29 -8h268q16 0 27 8q16 12 22 20q10 10 16.5 24.5 t6.5 26.5v807q0 12 -6 29q-4 12 -19 23q-16 16 -22 18q-16 6 -27 6h-256q-20 0 -35 -6q-4 -2 -27 -18q-14 -14 -20 -33q-8 -25 -8 -37v-795z" />
<glyph unicode="&#xd6;" horiz-adv-x="1585" d="M92 358v709q0 57 4 82q8 49 15 70q8 33 24 65q16 31 33 51q23 27 45 43q25 18 49 31q29 14 72 21q37 6 76 6h782q37 0 71.5 -6.5t63.5 -20.5q39 -16 62 -33q27 -20 49 -53q23 -29 37 -63q14 -37 24 -84q8 -39 10 -68q2 -25 2 -80v-616q0 -33 -4 -86q-2 -39 -12 -76 q-12 -53 -22 -80q-14 -35 -37 -64q-37 -45 -78 -69q-33 -16 -63.5 -24.5t-73.5 -8.5h-840q-37 0 -63.5 6t-55.5 21q-37 18 -57 39q-29 29 -47 55l-29 53q-6 14 -20 62q-10 31 -13 59q-4 41 -4 59zM381 1481v288h350v-288h-350zM590 309q0 -16 8 -26q12 -16 18 -23 q18 -14 25 -16q20 -8 29 -8h268q16 0 27 8q16 12 22 20q10 10 16.5 24.5t6.5 26.5v807q0 12 -6 29q-4 12 -19 23q-16 16 -22 18q-16 6 -27 6h-256q-20 0 -35 -6q-4 -2 -27 -18q-14 -14 -20 -33q-8 -25 -8 -37v-795zM850 1481v288h350v-288h-350z" />
<glyph unicode="&#xd7;" horiz-adv-x="1148" d="M92 246l350 350l-350 350l152 152l350 -350l350 350l152 -154l-351 -348l351 -350l-152 -152l-350 348l-350 -348z" />
<glyph unicode="&#xd8;" horiz-adv-x="1697" d="M-16 -240l225 308q-20 16 -29 26q-16 20 -22 31l-29 53q-6 14 -20 62q-10 31 -13 59q-4 41 -4 59v709q0 57 4 82q8 49 15 70q8 33 24 65q16 31 33 51q23 27 45 43q25 18 49 31q29 14 72 21q37 6 76 6h782h16q4 0 10.5 -1t8.5 -1l159 219l232 2l-215 -291q14 -12 35 -41 q23 -29 37 -63q14 -37 24 -84q8 -39 10 -68q2 -25 2 -80v-616q0 -33 -4 -86q-2 -39 -12 -76q-12 -53 -22 -80q-14 -35 -37 -64q-20 -29 -35 -41t-43 -28q-33 -16 -63.5 -24.5t-73.5 -8.5h-830l-182 -244h-225zM590 274q2 -8 8 -16t14 -14q10 -10 25 -17q20 -8 25 -8h256 q14 0 34 8q16 6 27 17q6 6 20 35q8 16 9 36v525zM590 580l416 565q-2 4 -9 14q-4 6 -12 15q-16 16 -22 18q-16 6 -27 6h-256q-20 0 -35 -6q-4 -2 -27 -18q-14 -14 -20 -33q-8 -25 -8 -37v-524z" />
<glyph unicode="&#xd9;" horiz-adv-x="1570" d="M98 399v1037h502v-1078q0 -20 6 -39q6 -16 21 -34q16 -23 35 -33q25 -14 43 -14h475q18 0 43 8q12 4 28 16q20 20 25 33q6 18 6 39v1102h215v-1055q0 -45 -2 -68q-4 -49 -8 -69q-12 -45 -21 -68q-10 -31 -32 -61q-16 -27 -35 -45q-10 -10 -51 -33q-35 -20 -70 -28.5 t-92 -8.5h-760q-51 0 -84 8q-41 10 -70 25q-25 12 -55 39q-18 16 -43 49q-23 33 -37 63q-10 23 -22 72q-9 37 -13 74q-4 49 -4 69zM446 1810h340l328 -329h-317z" />
<glyph unicode="&#xda;" horiz-adv-x="1570" d="M98 399v1037h502v-1078q0 -20 6 -39q6 -16 21 -34q16 -23 35 -33q25 -14 43 -14h475q18 0 43 8q12 4 28 16q20 20 25 33q6 18 6 39v1102h215v-1055q0 -45 -2 -68q-4 -49 -8 -69q-12 -45 -21 -68q-10 -31 -32 -61q-16 -27 -35 -45q-10 -10 -51 -33q-35 -20 -70 -28.5 t-92 -8.5h-760q-51 0 -84 8q-41 10 -70 25q-25 12 -55 39q-18 16 -43 49q-23 33 -37 63q-10 23 -22 72q-9 37 -13 74q-4 49 -4 69zM446 1481l328 329h340l-350 -329h-318z" />
<glyph unicode="&#xdb;" horiz-adv-x="1570" d="M98 399v1037h502v-1078q0 -20 6 -39q6 -16 21 -34q16 -23 35 -33q25 -14 43 -14h475q18 0 43 8q12 4 28 16q20 20 25 33q6 18 6 39v1102h215v-1055q0 -45 -2 -68q-4 -49 -8 -69q-12 -45 -21 -68q-10 -31 -32 -61q-16 -27 -35 -45q-10 -10 -51 -33q-35 -20 -70 -28.5 t-92 -8.5h-760q-51 0 -84 8q-41 10 -70 25q-25 12 -55 39q-18 16 -43 49q-23 33 -37 63q-10 23 -22 72q-9 37 -13 74q-4 49 -4 69zM397 1481l244 323h350l246 -323h-319l-103 166l-117 -166h-301z" />
<glyph unicode="&#xdc;" horiz-adv-x="1570" d="M98 399v1037h502v-1078q0 -20 6 -39q6 -16 21 -34q16 -23 35 -33q25 -14 43 -14h475q18 0 43 8q12 4 28 16q20 20 25 33q6 18 6 39v1102h215v-1055q0 -45 -2 -68q-4 -49 -8 -69q-12 -45 -21 -68q-10 -31 -32 -61q-16 -27 -35 -45q-10 -10 -51 -33q-35 -20 -70 -28.5 t-92 -8.5h-760q-51 0 -84 8q-41 10 -70 25q-25 12 -55 39q-18 16 -43 49q-23 33 -37 63q-10 23 -22 72q-9 37 -13 74q-4 49 -4 69zM369 1481v288h352v-288h-352zM840 1481v288h350v-288h-350z" />
<glyph unicode="&#xdd;" horiz-adv-x="1589" d="M-23 1436h590l357 -590l333 590h259l-515 -901v-535h-499v555zM440 1481l328 329h340l-350 -329h-318z" />
<glyph unicode="&#xde;" horiz-adv-x="1536" d="M104 0v1438h508v-230h568q18 0 51 -4q27 -4 51 -12q33 -12 47 -21q29 -16 43 -26q20 -18 45 -49q18 -25 33 -66q8 -20 12 -49q4 -33 4 -53v-357q0 -39 -6 -69q-6 -27 -16 -60q-16 -33 -27 -47q-16 -25 -33 -37q-18 -18 -47 -32q-33 -16 -49 -22.5t-53 -10.5t-55 -4h-568 v-289h-508zM610 518h283q16 0 27 8q16 12 22 23q12 16 16 26q6 14 7 29v293q0 12 -7 27q-6 16 -14 24q-8 12 -22 19q-16 8 -25 8h-287v-457z" />
<glyph unicode="&#xdf;" horiz-adv-x="1511" d="M2 852v201h139v92q0 29 6 59q6 33 21 58q2 6 22 41q10 18 31 38q10 12 43 37q27 20 51.5 30.5t61.5 18.5q31 6 67 7h686q23 0 35 -2l37 -7q14 -2 35 -12l33 -16q29 -18 47 -47q16 -25 16 -72v-195q0 -35 -14 -55q-16 -23 -47 -41q-29 -12 -47 -18l-62 -21q27 0 64 -4 q23 -2 53 -10q37 -9 61 -25q29 -18 43.5 -34.5t30.5 -53.5q14 -31 17 -59q8 -41 8 -64v-63v-346q0 -27 -4 -64q-2 -23 -11 -53q-12 -41 -20 -57q-12 -25 -31 -43q-12 -14 -33 -29q-16 -10 -38 -20q-33 -10 -60 -17q-20 -4 -63 -4h-461v201h182q6 0 19 4q10 2 16 10q2 4 5 8 t5 8q6 9 6 19v485q0 12 -6 28.5t-14 25.5q-6 8 -23 20q-8 6 -24 6h-178v207h139q18 0 33 12t24 31q9 15 12 31l7 30q0 18 -4 31q-6 20 -15 33q-12 20 -20 27q-14 10 -27 10h-170q-8 0 -20 -4q-6 -2 -19 -11q-2 -2 -12 -16q-4 -6 -4 -16v-1182h-488v852h-141z" />
<glyph unicode="&#xe0;" d="M63 358v60q0 23 5 63q0 4 12 64q6 35 18 57q20 37 35 51q23 23 51 37q27 12 54 19q31 6 65 6h498q12 0 26 8q20 12 27 20q4 4 12 21q6 12 6 22q0 12 -6 25q-2 4 -16 18q-10 10 -22.5 16.5t-22.5 6.5h-662v207h922q29 0 74 -8q37 -6 61 -21q37 -18 55 -37q25 -25 39 -47 q14 -20 27 -51q8 -18 16 -55q12 -49 15 -76q2 -25 2 -72v-688h-428l-29 113q-4 -16 -8 -23q-6 -8 -8 -16q-6 -12 -15 -21l-16 -16q-25 -20 -45 -29q-23 -8 -55 -8h-447q-37 0 -63 6q-29 6 -54 19q-29 14 -45 30.5t-32 42.5q-14 25 -25 60q-12 47 -14 63q-4 45 -4 70 q0 12 -1.5 32.5t-1.5 30.5zM383 1440h342l328 -328h-320zM551 276q0 -12 4 -20q2 -2 5 -10l5 -13q9 -9 25 -18q10 -6 26 -6h193q8 0 20.5 6t22.5 16q4 4 12 21q6 12 6 20v238h-235q-18 0 -33 -8q-16 -10 -27 -21q-12 -16 -18 -26.5t-6 -28.5v-150z" />
<glyph unicode="&#xe1;" d="M63 358v60q0 23 5 63q0 4 12 64q6 35 18 57q20 37 35 51q23 23 51 37q27 12 54 19q31 6 65 6h498q12 0 26 8q20 12 27 20q4 4 12 21q6 12 6 22q0 12 -6 25q-2 4 -16 18q-10 10 -22.5 16.5t-22.5 6.5h-662v207h922q29 0 74 -8q37 -6 61 -21q37 -18 55 -37q25 -25 39 -47 q14 -20 27 -51q8 -18 16 -55q12 -49 15 -76q2 -25 2 -72v-688h-428l-29 113q-4 -16 -8 -23q-6 -8 -8 -16q-6 -12 -15 -21l-16 -16q-25 -20 -45 -29q-23 -8 -55 -8h-447q-37 0 -63 6q-29 6 -54 19q-29 14 -45 30.5t-32 42.5q-14 25 -25 60q-12 47 -14 63q-4 45 -4 70 q0 12 -1.5 32.5t-1.5 30.5zM383 1112l330 328h340l-351 -328h-319zM551 276q0 -12 4 -20q2 -2 5 -10l5 -13q9 -9 25 -18q10 -6 26 -6h193q8 0 20.5 6t22.5 16q4 4 12 21q6 12 6 20v238h-235q-18 0 -33 -8q-16 -10 -27 -21q-12 -16 -18 -26.5t-6 -28.5v-150z" />
<glyph unicode="&#xe2;" d="M63 358v60q0 23 5 63q0 4 12 64q6 35 18 57q20 37 35 51q23 23 51 37q27 12 54 19q31 6 65 6h498q12 0 26 8q20 12 27 20q4 4 12 21q6 12 6 22q0 12 -6 25q-2 4 -16 18q-10 10 -22.5 16.5t-22.5 6.5h-662v207h922q29 0 74 -8q37 -6 61 -21q37 -18 55 -37q25 -25 39 -47 q14 -20 27 -51q8 -18 16 -55q12 -49 15 -76q2 -25 2 -72v-688h-428l-29 113q-4 -16 -8 -23q-6 -8 -8 -16q-6 -12 -15 -21l-16 -16q-25 -20 -45 -29q-23 -8 -55 -8h-447q-37 0 -63 6q-29 6 -54 19q-29 14 -45 30.5t-32 42.5q-14 25 -25 60q-12 47 -14 63q-4 45 -4 70 q0 12 -1.5 32.5t-1.5 30.5zM258 1112l242 324h352l242 -324h-316l-102 164l-119 -164h-299zM551 276q0 -12 4 -20q2 -2 5 -10l5 -13q9 -9 25 -18q10 -6 26 -6h193q8 0 20.5 6t22.5 16q4 4 12 21q6 12 6 20v238h-235q-18 0 -33 -8q-16 -10 -27 -21q-12 -16 -18 -26.5 t-6 -28.5v-150z" />
<glyph unicode="&#xe3;" d="M63 358v60q0 23 5 63q0 4 12 64q6 35 18 57q20 37 35 51q23 23 51 37q27 12 54 19q31 6 65 6h498q12 0 26 8q20 12 27 20q4 4 12 21q6 12 6 22q0 12 -6 25q-2 4 -16 18q-10 10 -22.5 16.5t-22.5 6.5h-662v207h922q29 0 74 -8q37 -6 61 -21q37 -18 55 -37q25 -25 39 -47 q14 -20 27 -51q8 -18 16 -55q12 -49 15 -76q2 -25 2 -72v-688h-428l-29 113q-4 -16 -8 -23q-6 -8 -8 -16q-6 -12 -15 -21l-16 -16q-25 -20 -45 -29q-23 -8 -55 -8h-447q-37 0 -63 6q-29 6 -54 19q-29 14 -45 30.5t-32 42.5q-14 25 -25 60q-12 47 -14 63q-4 45 -4 70 q0 12 -1.5 32.5t-1.5 30.5zM287 1110q0 6 1 15.5t2 17.5t3 16q2 4 5 23.5t7 29.5q12 37 21 54q14 31 28 49q27 37 35 45q14 14 43 35q12 8 49 22q23 8 58 8q41 0 84 -12q37 -10 84 -29l79 -28q31 -12 68 -17q29 -4 47 23q20 27 29 63h164l-9 -55q-4 -33 -8 -51 q-10 -39 -14 -51q-10 -27 -20.5 -45.5t-31 -39t-40.5 -30.5q-31 -16 -56 -20q-31 -6 -67 -7q-27 0 -41 2q-33 4 -45 9l-43 12q-29 8 -43 14q-8 2 -14.5 6.5t-12.5 6.5t-14 4q-20 6 -37 12q-29 8 -33 10q-10 2 -26 6q-12 2 -31 -8q-12 -8 -25 -22q-12 -16 -18 -33 q-8 -25 -10 -35h-168zM551 276q0 -12 4 -20q2 -2 5 -10l5 -13q9 -9 25 -18q10 -6 26 -6h193q8 0 20.5 6t22.5 16q4 4 12 21q6 12 6 20v238h-235q-18 0 -33 -8q-16 -10 -27 -21q-12 -16 -18 -26.5t-6 -28.5v-150z" />
<glyph unicode="&#xe4;" d="M63 358v60q0 23 5 63q0 4 12 64q6 35 18 57q20 37 35 51q23 23 51 37q27 12 54 19q31 6 65 6h498q12 0 26 8q20 12 27 20q4 4 12 21q6 12 6 22q0 12 -6 25q-2 4 -16 18q-10 10 -22.5 16.5t-22.5 6.5h-662v207h922q29 0 74 -8q37 -6 61 -21q37 -18 55 -37q25 -25 39 -47 q14 -20 27 -51q8 -18 16 -55q12 -49 15 -76q2 -25 2 -72v-688h-428l-29 113q-4 -16 -8 -23q-6 -8 -8 -16q-6 -12 -15 -21l-16 -16q-25 -20 -45 -29q-23 -8 -55 -8h-447q-37 0 -63 6q-29 6 -54 19q-29 14 -45 30.5t-32 42.5q-14 25 -25 60q-12 47 -14 63q-4 45 -4 70 q0 12 -1.5 32.5t-1.5 30.5zM254 1110v293h354v-293h-354zM551 276q0 -12 4 -20q2 -2 5 -10l5 -13q9 -9 25 -18q10 -6 26 -6h193q8 0 20.5 6t22.5 16q4 4 12 21q6 12 6 20v238h-235q-18 0 -33 -8q-16 -10 -27 -21q-12 -16 -18 -26.5t-6 -28.5v-150zM725 1110v293h350v-293 h-350z" />
<glyph unicode="&#xe5;" d="M63 358v60q0 23 5 63q0 4 12 64q6 35 18 57q20 37 35 51q23 23 51 37q27 12 54 19q31 6 65 6h498q12 0 26 8q20 12 27 20q4 4 12 21q6 12 6 22q0 12 -6 25q-2 4 -16 18q-10 10 -22.5 16.5t-22.5 6.5h-662v207h922q29 0 74 -8q37 -6 61 -21q37 -18 55 -37q25 -25 39 -47 q14 -20 27 -51q8 -18 16 -55q12 -49 15 -76q2 -25 2 -72v-688h-428l-29 113q-4 -16 -8 -23q-6 -8 -8 -16q-6 -12 -15 -21l-16 -16q-25 -20 -45 -29q-23 -8 -55 -8h-447q-37 0 -63 6q-29 6 -54 19q-29 14 -45 30.5t-32 42.5q-14 25 -25 60q-12 47 -14 63q-4 45 -4 70 q0 12 -1.5 32.5t-1.5 30.5zM487 1294q0 33 17 70q16 33 39 57q25 25 55.5 39.5t71.5 14.5t71 -15q33 -14 57.5 -38.5t39.5 -57.5q14 -31 14 -70q0 -41 -14 -71q-14 -35 -39 -57.5t-58 -39.5q-31 -14 -71.5 -14t-71.5 14.5t-55 38.5q-23 23 -39 58q-17 36 -17 71zM551 276 q0 -12 4 -20q2 -2 5 -10l5 -13q9 -9 25 -18q10 -6 26 -6h193q8 0 20.5 6t22.5 16q4 4 12 21q6 12 6 20v238h-235q-18 0 -33 -8q-16 -10 -27 -21q-12 -16 -18 -26.5t-6 -28.5v-150zM584 1294q0 -14 8 -34q6 -14 18.5 -26.5t26.5 -19t32.5 -6.5t33 6.5t26.5 18.5q16 16 21 27 q6 14 6 34q0 15 -6 31q-6 14 -21 29q-10 10 -27 16q-20 8 -32.5 8t-32.5 -8q-16 -6 -27 -16q-12 -12 -18 -29q-8 -21 -8 -31z" />
<glyph unicode="&#xe6;" horiz-adv-x="2084" d="M66 264v174q0 23 4 60t8 53q8 27 22 55q10 20 31 41q31 31 76 47q14 4 47 8.5t49 4.5h424q16 0 27 8l10 7q10 7 14 11q10 10 17 27q4 12 8 28q0 10 -6 21q-8 12 -13 16q-10 10 -24 17q-15 6 -25 6h-594v209h1624q2 0 11.5 -1t15.5 -1q8 0 33 -4q20 -4 33 -9q20 -8 26 -14 q4 -4 10.5 -8t10.5 -8l18 -19q12 -12 19 -20q8 -12 14 -23q12 -29 16 -43q8 -27 10 -47q6 -33 7 -72v-374h-732v-115q0 -16 8.5 -32.5t20.5 -28.5q10 -12 27 -23q10 -6 28 -6h603v-207h-900q-39 0 -57 4q-29 6 -51 21q-2 2 -10 6t-13 8q-8 6 -22 20q-2 2 -7 7.5t-9.5 8.5 t-6.5 7q-12 16 -18 27q-12 -23 -19 -39l-18 -31l-12 -18q-12 -8 -21 -13q-10 -6 -28 -8q-12 -2 -41 -2h-410q-33 0 -51 4q-29 6 -53 19q-23 10 -39 20q-12 8 -31 31q-14 14 -29 39q-8 14 -20 51q-4 14 -8 47t-4 53zM524 279q0 -14 6.5 -26.5t16.5 -23.5q20 -16 22 -16 q8 -4 25 -4h141q10 0 27 4q14 4 22 12q4 4 13 31q6 18 6 49v197h-213q-12 0 -20.5 -4t-18.5 -15q-16 -12 -21 -22q-6 -14 -6 -29v-153zM1262 618h305v166q0 4 -4 21q-2 10 -13 20q-8 12 -14 17q-8 6 -20 6h-205q-9 0 -19 -6q-8 -6 -14 -15q-10 -10 -12 -20q-4 -16 -4 -21 v-168z" />
<glyph unicode="&#xe7;" horiz-adv-x="1181" d="M63 303v438q0 29 7 60q8 41 14 59q8 29 25 58q20 37 34 53q6 6 41 37q16 14 49 28q23 10 46 13q33 4 51 4h796v-207h-485q-16 0 -31 -8q-20 -12 -28 -21q-12 -10 -23 -26q-6 -10 -6 -29v-475q0 -16 8 -31q10 -16 21 -25q15 -12 30 -18q10 -4 31 -4h483v-209h-401 l-74 -125h123q16 0 35 -6q16 -6 33 -19q10 -10 26 -34q12 -18 13 -37v-207q0 -18 -9 -35q-12 -25 -20 -35q-12 -14 -28.5 -24t-32.5 -10h-324v77h192q6 0 10.5 2t8.5 7q2 0 4 4l2 4q4 4 4 8v199q0 2 -4 10q-2 4 -6 8l-12 6q-4 2 -13 2h-188v80h45l78 125h-242q-45 0 -76 8 q-41 10 -61 23q-39 25 -49 35q-25 25 -39 47l-27 43q-8 16 -16 49t-10 49q-5 33 -5 49z" />
<glyph unicode="&#xe8;" horiz-adv-x="1429" d="M66 289v473q0 33 2 47l4 41q6 31 16 63q10 31 25 52q15 25 37 43q23 20 47 28q18 8 51 15q28 6 55 6h811q34 0 68 -6q33 -6 65 -23q25 -12 45 -33q18 -18 35 -45l19 -43q8 -20 12 -47q4 -45 4 -72v-374h-813v-115q0 -20 6 -33q8 -18 23 -28q10 -10 30 -23q10 -6 31 -6 h676v-207h-1008q-41 0 -61 4q-37 8 -58 21q-25 10 -45 26q-14 12 -34 45q-10 14 -21 43q-6 18 -14 56l-6 43q-2 14 -2 49zM293 1440h340l330 -328h-320zM551 618h342v166q0 8 -6 21q-8 16 -13 20q-12 12 -18 17q-8 6 -20 6h-232q-9 0 -18 -6q-12 -8 -19 -15q-4 -4 -12 -20 q-4 -8 -4 -21v-168z" />
<glyph unicode="&#xe9;" horiz-adv-x="1429" d="M66 289v473q0 33 2 47l4 41q6 31 16 63q10 31 25 52q15 25 37 43q23 20 47 28q18 8 51 15q28 6 55 6h811q34 0 68 -6q33 -6 65 -23q25 -12 45 -33q18 -18 35 -45l19 -43q8 -20 12 -47q4 -45 4 -72v-374h-813v-115q0 -20 6 -33q8 -18 23 -28q10 -10 30 -23q10 -6 31 -6 h676v-207h-1008q-41 0 -61 4q-37 8 -58 21q-25 10 -45 26q-14 12 -34 45q-10 14 -21 43q-6 18 -14 56l-6 43q-2 14 -2 49zM293 1112l330 328h340l-353 -328h-317zM551 618h342v166q0 8 -6 21q-8 16 -13 20q-12 12 -18 17q-8 6 -20 6h-232q-9 0 -18 -6q-12 -8 -19 -15 q-4 -4 -12 -20q-4 -8 -4 -21v-168z" />
<glyph unicode="&#xea;" horiz-adv-x="1429" d="M66 289v473q0 33 2 47l4 41q6 31 16 63q10 31 25 52q15 25 37 43q23 20 47 28q18 8 51 15q28 6 55 6h811q34 0 68 -6q33 -6 65 -23q25 -12 45 -33q18 -18 35 -45l19 -43q8 -20 12 -47q4 -45 4 -72v-374h-813v-115q0 -20 6 -33q8 -18 23 -28q10 -10 30 -23q10 -6 31 -6 h676v-207h-1008q-41 0 -61 4q-37 8 -58 21q-25 10 -45 26q-14 12 -34 45q-10 14 -21 43q-6 18 -14 56l-6 43q-2 14 -2 49zM258 1112l242 324h352l242 -324h-316l-102 164l-119 -164h-299zM551 618h342v166q0 8 -6 21q-8 16 -13 20q-12 12 -18 17q-8 6 -20 6h-232 q-9 0 -18 -6q-12 -8 -19 -15q-4 -4 -12 -20q-4 -8 -4 -21v-168z" />
<glyph unicode="&#xeb;" horiz-adv-x="1429" d="M66 289v473q0 33 2 47l4 41q6 31 16 63q10 31 25 52q15 25 37 43q23 20 47 28q18 8 51 15q28 6 55 6h811q34 0 68 -6q33 -6 65 -23q25 -12 45 -33q18 -18 35 -45l19 -43q8 -20 12 -47q4 -45 4 -72v-374h-813v-115q0 -20 6 -33q8 -18 23 -28q10 -10 30 -23q10 -6 31 -6 h676v-207h-1008q-41 0 -61 4q-37 8 -58 21q-25 10 -45 26q-14 12 -34 45q-10 14 -21 43q-6 18 -14 56l-6 43q-2 14 -2 49zM266 1110v293h352v-293h-352zM551 618h342v166q0 8 -6 21q-8 16 -13 20q-12 12 -18 17q-8 6 -20 6h-232q-9 0 -18 -6q-12 -8 -19 -15q-4 -4 -12 -20 q-4 -8 -4 -21v-168zM737 1110v293h350v-293h-350z" />
<glyph unicode="&#xec;" horiz-adv-x="704" d="M4 1440h340l330 -328h-318zM119 0v1059h481v-1059h-481z" />
<glyph unicode="&#xed;" horiz-adv-x="704" d="M4 1112l330 328h340l-352 -328h-318zM119 0v1059h481v-1059h-481z" />
<glyph unicode="&#xee;" horiz-adv-x="815" d="M-57 1112l241 324h351l243 -324h-315l-103 164l-120 -164h-297zM119 0v1059h481v-1059h-481z" />
<glyph unicode="&#xef;" horiz-adv-x="806" d="M-47 1110v293h348v-293h-348zM119 0v1059h481v-1059h-481zM420 1110v293h350v-293h-350z" />
<glyph unicode="&#xf0;" horiz-adv-x="1433" d="M68 287v262q0 37 6 67q8 41 14 60q12 31 25 49q2 4 12 18.5t16 22.5q22 22 43 37q18 12 49 24q34 15 56 19q6 0 17 3t16 3q12 0 14 -2t6 -2h268h269v162q0 14 -7 22l-12 19q-10 10 -18 14l-25 12l-221 -135l-186 129l174 100l-254 105l266 164l266 -115l164 121l199 -119 l-164 -90l237 -102q14 -6 27 -21q16 -20 23 -33q6 -10 14 -34q4 -12 4 -37v-1010h-1024q-51 0 -66 2q-27 4 -34 8q-12 6 -17 10l-4 3q-4 2 -4 4q-33 16 -47 28q-29 25 -39 39l-27 43q-8 16 -20 49q-8 23 -12 52q-4 33 -4 49zM551 270q0 -14 4 -22q6 -12 14.5 -20.5 t20.5 -14.5t22 -6h211q12 0 21 6q12 8 18 14q2 2 12 23q6 12 7 22v303q0 10 -7 23q-8 16 -12 20q-12 12 -18 16.5t-21 4.5h-215q-12 0 -20 -4t-21 -17q-2 -2 -12 -22q-4 -8 -4 -27v-299z" />
<glyph unicode="&#xf1;" horiz-adv-x="1462" d="M86 0v1053h1022q72 0 135 -35q53 -27 90 -82q14 -20 27 -47q10 -23 20 -58q10 -31 13 -63q4 -45 4 -72v-696h-486v784q0 18 -4 27q-6 12 -12 18q-10 10 -25 15q-16 4 -24 4h-209q-6 0 -23 -4q-10 -2 -20 -13q-8 -4 -14 -18q-6 -12 -7 -27v-786h-487zM270 1110q0 33 4 49 q10 41 15 53q12 37 20 54q14 31 29 49q18 27 35 45q8 10 43 35q16 12 49 22q25 8 57 8q39 0 82 -12q37 -10 84 -29l80 -28q31 -12 68 -17q31 -2 49 23q16 23 26 63h164l-6 -55q-4 -33 -8 -51q-10 -39 -14 -51q-6 -16 -23 -45q-14 -25 -29 -39q-20 -20 -41 -31 q-31 -16 -55 -20q-31 -6 -70 -7q-27 0 -41 2q-29 4 -43 9l-43 12q-29 8 -43 14q-8 2 -14 6.5t-12 6.5t-15 4q-20 6 -38 12q-27 8 -33 10q-15 3 -25 6q-12 2 -30 -8q-12 -8 -25 -22q-6 -6 -18 -33q-8 -18 -13 -35h-166z" />
<glyph unicode="&#xf2;" horiz-adv-x="1445" d="M61 264v508q0 35 2 51q4 33 7 47q10 39 20 62q12 27 29 47q16 18 39 35q14 10 43 22q25 9 49 13q33 4 49 4h836q18 0 55 -4q23 -2 49 -13q29 -10 43 -20q20 -14 39 -35q23 -33 29 -45q10 -25 20 -64q2 -14 6 -47q2 -16 2 -55v-498q0 -23 -4 -59q-4 -33 -8 -51 q-10 -31 -20 -51q-14 -29 -27 -41q-14 -16 -35 -31q-16 -10 -39 -21q-33 -12 -53 -14q-37 -4 -57 -4h-824q-31 0 -61 6q-35 6 -60 21q-29 16 -43 26q-16 12 -34 37l-27 43q-8 18 -16 55l-7 35q-2 12 -2 41zM383 1440h342l328 -328h-320zM547 272q0 -10 6 -22q8 -16 12 -21 q12 -12 20.5 -16t20.5 -4h230q12 0 20 4q12 6 20.5 14.5t14.5 20.5t6 20v520q0 10 -6 21q-8 12 -12 16q-6 6 -19 15q-6 4 -18 4h-264q-6 0 -13 -6q-8 -8 -10 -15l-4 -8t-2 -8q-2 -6 -2 -16v-519z" />
<glyph unicode="&#xf3;" horiz-adv-x="1445" d="M61 264v508q0 35 2 51q4 33 7 47q10 39 20 62q12 27 29 47q16 18 39 35q14 10 43 22q25 9 49 13q33 4 49 4h836q18 0 55 -4q23 -2 49 -13q29 -10 43 -20q20 -14 39 -35q23 -33 29 -45q10 -25 20 -64q2 -14 6 -47q2 -16 2 -55v-498q0 -23 -4 -59q-4 -33 -8 -51 q-10 -31 -20 -51q-14 -29 -27 -41q-14 -16 -35 -31q-16 -10 -39 -21q-33 -12 -53 -14q-37 -4 -57 -4h-824q-31 0 -61 6q-35 6 -60 21q-29 16 -43 26q-16 12 -34 37l-27 43q-8 18 -16 55l-7 35q-2 12 -2 41zM383 1112l330 328h340l-351 -328h-319zM547 272q0 -10 6 -22 q8 -16 12 -21q12 -12 20.5 -16t20.5 -4h230q12 0 20 4q12 6 20.5 14.5t14.5 20.5t6 20v520q0 10 -6 21q-8 12 -12 16q-6 6 -19 15q-6 4 -18 4h-264q-6 0 -13 -6q-8 -8 -10 -15l-4 -8t-2 -8q-2 -6 -2 -16v-519z" />
<glyph unicode="&#xf4;" horiz-adv-x="1445" d="M61 264v508q0 35 2 51q4 33 7 47q10 39 20 62q12 27 29 47q16 18 39 35q14 10 43 22q25 9 49 13q33 4 49 4h836q18 0 55 -4q23 -2 49 -13q29 -10 43 -20q20 -14 39 -35q23 -33 29 -45q10 -25 20 -64q2 -14 6 -47q2 -16 2 -55v-498q0 -23 -4 -59q-4 -33 -8 -51 q-10 -31 -20 -51q-14 -29 -27 -41q-14 -16 -35 -31q-16 -10 -39 -21q-33 -12 -53 -14q-37 -4 -57 -4h-824q-31 0 -61 6q-35 6 -60 21q-29 16 -43 26q-16 12 -34 37l-27 43q-8 18 -16 55l-7 35q-2 12 -2 41zM307 1112l246 324h348l246 -324h-320l-102 164l-117 -164h-301z M547 272q0 -10 6 -22q8 -16 12 -21q12 -12 20.5 -16t20.5 -4h230q12 0 20 4q12 6 20.5 14.5t14.5 20.5t6 20v520q0 10 -6 21q-8 12 -12 16q-6 6 -19 15q-6 4 -18 4h-264q-6 0 -13 -6q-8 -8 -10 -15l-4 -8t-2 -8q-2 -6 -2 -16v-519z" />
<glyph unicode="&#xf5;" horiz-adv-x="1445" d="M61 264v508q0 35 2 51q4 33 7 47q10 39 20 62q12 27 29 47q16 18 39 35q14 10 43 22q25 9 49 13q33 4 49 4h836q18 0 55 -4q23 -2 49 -13q29 -10 43 -20q20 -14 39 -35q23 -33 29 -45q10 -25 20 -64q2 -14 6 -47q2 -16 2 -55v-498q0 -23 -4 -59q-4 -33 -8 -51 q-10 -31 -20 -51q-14 -29 -27 -41q-14 -16 -35 -31q-16 -10 -39 -21q-33 -12 -53 -14q-37 -4 -57 -4h-824q-31 0 -61 6q-35 6 -60 21q-29 16 -43 26q-16 12 -34 37l-27 43q-8 18 -16 55l-7 35q-2 12 -2 41zM319 1110q4 33 9 49q0 4 4 23.5t8 29.5q12 37 20 54q20 39 27 49 q20 29 37 45q14 14 43 35q12 8 49 22q23 8 55 8q43 0 86 -12q37 -10 84 -29l78 -28q31 -12 70 -17q29 -4 47 23q20 27 29 63h163l-8 -55q-2 -18 -10 -51q0 -2 -4 -21.5t-8 -29.5q-6 -16 -23 -45q-14 -25 -28 -39q-18 -18 -43 -31q-33 -16 -54 -20q-31 -6 -67 -7q-29 0 -43 2 q-29 4 -43 9l-45 12q-29 8 -43 14q-8 2 -14.5 6.5t-12.5 6.5t-14 4q-20 6 -37 12q-29 8 -33 10q-10 2 -27 6q-10 2 -28 -8q-16 -10 -26.5 -22.5t-16.5 -32.5q-2 -4 -6.5 -16.5t-6.5 -18.5h-168zM547 272q0 -10 6 -22q8 -16 12 -21q12 -12 20.5 -16t20.5 -4h230q12 0 20 4 q12 6 20.5 14.5t14.5 20.5t6 20v520q0 10 -6 21q-8 12 -12 16q-6 6 -19 15q-6 4 -18 4h-264q-6 0 -13 -6q-8 -8 -10 -15l-4 -8t-2 -8q-2 -6 -2 -16v-519z" />
<glyph unicode="&#xf6;" horiz-adv-x="1445" d="M61 264v508q0 35 2 51q4 33 7 47q10 39 20 62q12 27 29 47q16 18 39 35q14 10 43 22q25 9 49 13q33 4 49 4h836q18 0 55 -4q23 -2 49 -13q29 -10 43 -20q20 -14 39 -35q23 -33 29 -45q10 -25 20 -64q2 -14 6 -47q2 -16 2 -55v-498q0 -23 -4 -59q-4 -33 -8 -51 q-10 -31 -20 -51q-14 -29 -27 -41q-14 -16 -35 -31q-16 -10 -39 -21q-33 -12 -53 -14q-37 -4 -57 -4h-824q-31 0 -61 6q-35 6 -60 21q-29 16 -43 26q-16 12 -34 37l-27 43q-8 18 -16 55l-7 35q-2 12 -2 41zM289 1110v293h352v-293h-352zM547 272q0 -10 6 -22q8 -16 12 -21 q12 -12 20.5 -16t20.5 -4h230q12 0 20 4q12 6 20.5 14.5t14.5 20.5t6 20v520q0 10 -6 21q-8 12 -12 16q-6 6 -19 15q-6 4 -18 4h-264q-6 0 -13 -6q-8 -8 -10 -15l-4 -8t-2 -8q-2 -6 -2 -16v-519zM760 1110v293h350v-293h-350z" />
<glyph unicode="&#xf7;" horiz-adv-x="1193" d="M82 428v211h266h262h260h269v-211h-529h-528zM430 0v279h361v-279h-361zM430 782v279h361v-279h-361z" />
<glyph unicode="&#xf8;" horiz-adv-x="1480" d="M41 -236l186 246q-5 2 -9 4t-9 4q-4 2 -10 4.5t-9 4.5q-25 10 -43 26q-23 18 -34 37l-27 43q-8 18 -16 55l-7 35q-2 12 -2 41v508q0 35 2 51q4 33 7 47q10 39 20 62q12 27 29 47q16 18 39 35q14 10 43 22q25 9 49 13q33 4 49 4h725l166 223h221l-182 -238l2 -1q2 -1 4 -1 h4q29 -10 43 -20q20 -14 39 -35q23 -33 29 -45q10 -25 20 -64q2 -14 6 -47q2 -16 2 -55v-498q0 -23 -4 -59q-4 -33 -8 -51q-10 -31 -20 -51q-14 -29 -27 -41q-14 -16 -35 -31q-16 -10 -39 -21q-33 -12 -53 -14q-37 -4 -57 -4h-689l-176 -236h-229zM547 434l313 404 q-9 6 -18 6h-264q-6 0 -13 -6q-8 -8 -10 -15l-4 -8t-2 -8q-2 -6 -2 -16v-357zM592 199q12 -4 20 -4h262q10 0 15 4q4 6 8 14q0 4 2 8l4 8q2 6 2 17v356z" />
<glyph unicode="&#xf9;" horiz-adv-x="1462" d="M90 317v740h479v-793q0 -8 6.5 -20.5t14.5 -20.5q4 -4 20 -12q8 -4 23 -4h217q4 0 20 4q14 4 21 10l12 19q6 9 6 18v797h488v-1055h-1022q-35 0 -66 6q-25 4 -55 21q-33 20 -47 32q-23 18 -41 41q-16 18 -33 50q-15 28 -24 55q-6 18 -15 55q-4 18 -4 57zM406 1440h339 l328 -328h-317z" />
<glyph unicode="&#xfa;" horiz-adv-x="1462" d="M90 317v740h479v-793q0 -8 6.5 -20.5t14.5 -20.5q4 -4 20 -12q8 -4 23 -4h217q4 0 20 4q14 4 21 10l12 19q6 9 6 18v797h488v-1055h-1022q-35 0 -66 6q-25 4 -55 21q-33 20 -47 32q-23 18 -41 41q-16 18 -33 50q-15 28 -24 55q-6 18 -15 55q-4 18 -4 57zM406 1112 l327 328h340l-348 -328h-319z" />
<glyph unicode="&#xfb;" horiz-adv-x="1462" d="M90 317v740h479v-793q0 -8 6.5 -20.5t14.5 -20.5q4 -4 20 -12q8 -4 23 -4h217q4 0 20 4q14 4 21 10l12 19q6 9 6 18v797h488v-1055h-1022q-35 0 -66 6q-25 4 -55 21q-33 20 -47 32q-23 18 -41 41q-16 18 -33 50q-15 28 -24 55q-6 18 -15 55q-4 18 -4 57zM319 1112 l242 324h352l242 -324h-315l-103 164l-116 -164h-302z" />
<glyph unicode="&#xfc;" horiz-adv-x="1462" d="M90 317v740h479v-793q0 -8 6.5 -20.5t14.5 -20.5q4 -4 20 -12q8 -4 23 -4h217q4 0 20 4q14 4 21 10l12 19q6 9 6 18v797h488v-1055h-1022q-35 0 -66 6q-25 4 -55 21q-33 20 -47 32q-23 18 -41 41q-16 18 -33 50q-15 28 -24 55q-6 18 -15 55q-4 18 -4 57zM334 1110v293 h352v-293h-352zM807 1110v293h348v-293h-348z" />
<glyph unicode="&#xfd;" horiz-adv-x="1441" d="M90 326v731h483v-785q0 -4 5 -20q2 -10 12 -21q10 -12 20 -18q8 -4 23 -4h217q12 0 18 4q8 6 15 14q4 8 8 21q4 16 4 18v785h479v-1196q0 -14 -4 -43q-2 -14 -10 -43l-19 -43q-14 -23 -24 -37q-14 -18 -33 -33q-20 -16 -41 -29q-14 -6 -47 -14q-25 -6 -53 -6h-993v203 h671q15 0 31 6q20 8 25 12l12 18q6 10 6 23v131h-522q-43 0 -70 8q-33 10 -59 25q-33 18 -51 37q-14 14 -43 51q-10 14 -25 43l-19 49q-8 23 -12 55q-4 38 -4 58zM428 1112l330 328h340l-353 -328h-317z" />
<glyph unicode="&#xfe;" horiz-adv-x="1449" d="M82 -389v1825h479v-375h533q20 0 53 -8q29 -8 51 -19q18 -10 47 -30q25 -18 45 -39q12 -12 37 -45l31 -50q10 -20 18 -53q6 -25 6 -51v-477q0 -18 -8 -56q-8 -35 -20 -57q-6 -16 -25 -41q-4 -4 -12 -18.5t-14 -20.5q-12 -14 -41 -39l-43 -30q-27 -16 -48 -21 q-25 -6 -49 -6h-561v-389h-479zM563 270q0 -12 6 -24.5t15 -20.5q6 -6 18 -12q8 -4 27 -4h205q16 0 24 4q16 8 20.5 12t12.5 21q6 12 6 24v514q0 10 -6 23q-8 16 -12 20q-8 8 -21 15q-8 4 -24 4h-205q-18 0 -26.5 -4t-19 -14.5t-14.5 -18.5q-6 -12 -6 -25v-514z" />
<glyph unicode="&#xff;" horiz-adv-x="1441" d="M90 326v731h483v-785q0 -4 5 -20q2 -10 12 -21q10 -12 20 -18q8 -4 23 -4h217q12 0 18 4q8 6 15 14q4 8 8 21q4 16 4 18v785h479v-1196q0 -14 -4 -43q-2 -14 -10 -43l-19 -43q-14 -23 -24 -37q-14 -18 -33 -33q-20 -16 -41 -29q-14 -6 -47 -14q-25 -6 -53 -6h-993v203 h671q15 0 31 6q20 8 25 12l12 18q6 10 6 23v131h-522q-43 0 -70 8q-33 10 -59 25q-33 18 -51 37q-14 14 -43 51q-10 14 -25 43l-19 49q-8 23 -12 55q-4 38 -4 58zM334 1110v293h352v-293h-352zM807 1110v293h348v-293h-348z" />
<glyph unicode="&#x152;" horiz-adv-x="2115" d="M92 338v747q0 49 8 82q12 49 23 70q14 33 33 59q18 28 43 50q14 14 43 34q18 14 49 29q27 14 65 21q34 6 68 6h1573v-240h-533v-334h514v-233h-514v-389h551v-240h-1583q-31 0 -63 6q-35 6 -66 19q-29 10 -51 24q-33 20 -49 35q-27 23 -45 47q-14 18 -35 59 q-12 23 -23 68q-8 33 -8 80zM590 319q0 -8 8 -28q4 -10 16 -27q6 -8 23 -20q10 -8 25 -8h303v962h-314q-12 0 -22 -8q-6 -6 -19 -21q-10 -12 -14 -24q-6 -14 -6 -29v-797z" />
<glyph unicode="&#x153;" horiz-adv-x="2095" d="M66 260v524q0 23 4 60t10 53q16 43 18 47q12 20 29 41q25 25 31 29q20 14 41 22q6 2 45 13q25 6 55 6h1438q28 0 55 -6q14 -2 49 -17q16 -8 45 -28q23 -16 39 -35q18 -20 35 -51q14 -27 25 -60q6 -16 10 -53t4 -57v-334h-715v-123q0 -8 4 -25q2 -10 12 -20q10 -12 31 -27 q16 -10 37 -10h584v-209h-1649q-31 0 -45 2q-22 3 -43 12q-29 10 -45 23q-33 25 -41 33q-12 12 -27 36q-10 18 -20 46q-10 25 -12 51q-4 37 -4 57zM539 266q0 -14 4 -22q8 -16 12 -21q6 -6 20 -10q16 -4 23 -4h154q10 0 22 4q16 4 21 10q10 10 12 21q4 16 4 22v520 q0 12 -4 25q-2 6 -12 16q-12 12 -21 15q-12 4 -22 4h-154q-6 0 -23 -4q-8 -2 -20 -15q-4 -4 -12 -16q-4 -6 -4 -25v-520zM1280 618h260v166q0 14 -4 22.5t-16.5 21t-18.5 16.5q-10 6 -20 6h-144q-8 0 -20 -6l-19 -19q-8 -8 -14 -20q-4 -8 -4 -25v-162z" />
<glyph unicode="&#x178;" horiz-adv-x="1589" d="M-23 1436h590l357 -590l333 590h259l-515 -901v-535h-499v555zM494 1497v291h346v-291h-346zM971 1497v291h346v-291h-346z" />
<glyph unicode="&#x2c6;" horiz-adv-x="815" d="M-57 1192l241 321h351l243 -321h-315l-103 164l-120 -164h-297z" />
<glyph unicode="&#x2dc;" horiz-adv-x="808" d="M-35 1188q0 25 6 51q8 37 15 53l8 24.5t10 29.5q10 25 29 49q20 29 34.5 43t43.5 35q12 8 49 22q23 8 55 8q47 0 84 -10q29 -8 86 -29l78 -28q31 -12 69 -17q29 -4 48 23q20 27 28 61h164l-8 -53q-2 -18 -10 -51q-10 -39 -15 -51q-10 -27 -20 -45q-14 -25 -30.5 -41.5 t-41.5 -28.5q-33 -16 -53 -21q-31 -6 -70 -6q-27 0 -41 2q-29 4 -43 9l-45 12q-29 8 -43 14q-8 2 -14 6t-12.5 6t-14.5 5q-20 6 -37 12l-30 10q-20 4 -29 6q-10 2 -29 -8q-10 -6 -24 -25q-10 -14 -21 -32q-6 -10 -10 -35h-166z" />
<glyph unicode="&#x2000;" horiz-adv-x="921" />
<glyph unicode="&#x2001;" horiz-adv-x="1843" />
<glyph unicode="&#x2002;" horiz-adv-x="921" />
<glyph unicode="&#x2003;" horiz-adv-x="1843" />
<glyph unicode="&#x2004;" horiz-adv-x="612" />
<glyph unicode="&#x2005;" horiz-adv-x="458" />
<glyph unicode="&#x2006;" horiz-adv-x="305" />
<glyph unicode="&#x2007;" horiz-adv-x="305" />
<glyph unicode="&#x2008;" horiz-adv-x="229" />
<glyph unicode="&#x2009;" horiz-adv-x="366" />
<glyph unicode="&#x200a;" horiz-adv-x="100" />
<glyph unicode="&#x2010;" horiz-adv-x="1193" d="M82 428v211h266h262h260h269v-211h-529h-528z" />
<glyph unicode="&#x2011;" horiz-adv-x="1193" d="M82 428v211h266h262h260h269v-211h-529h-528z" />
<glyph unicode="&#x2013;" horiz-adv-x="1056" d="M20 428v211h250h244h244h250v-211h-494h-494z" />
<glyph unicode="&#x2014;" horiz-adv-x="2072" d="M20 428v211h494h483h486h493v-211h-979h-977z" />
<glyph unicode="&#x2018;" horiz-adv-x="630" d="M117 780v375l243 309h207l-141 -309h176v-375h-485z" />
<glyph unicode="&#x2019;" horiz-adv-x="630" d="M117 1090v374h485v-374l-244 -310h-206l143 310h-178z" />
<glyph unicode="&#x201c;" horiz-adv-x="1253" d="M117 780v375l243 309h207l-141 -309h176v-375h-485zM711 780v375l243 309h207l-141 -309h176v-375h-485z" />
<glyph unicode="&#x201d;" horiz-adv-x="1253" d="M117 1090v374h485v-374l-244 -310h-206l143 310h-178zM711 1090v374h485v-374l-244 -310h-207l144 310h-178z" />
<glyph unicode="&#x2022;" horiz-adv-x="884" d="M178 719q0 70 26.5 129t71.5 104q49 49 107 72q68 27 129 27t129 -27q59 -25 104 -72q47 -45 72 -104q27 -66 27 -129.5t-27 -128.5q-25 -61 -72 -108.5t-104 -69.5q-68 -27 -129 -27t-129 27q-55 23 -107 69q-45 47 -71 109q-27 59 -27 129z" />
<glyph unicode="&#x2026;" horiz-adv-x="2064" d="M100 0v377h488v-377h-488zM791 0v377h487v-377h-487zM1481 0v377h487v-377h-487z" />
<glyph unicode="&#x202f;" horiz-adv-x="366" />
<glyph unicode="&#x2039;" horiz-adv-x="1155" d="M113 528l536 539h449v-223h-355l-319 -320l313 -313h365v-221h-453z" />
<glyph unicode="&#x203a;" horiz-adv-x="1155" d="M113 -10v221h360l315 313l-319 320h-354v223h448l539 -539l-541 -538h-448z" />
<glyph unicode="&#x205f;" horiz-adv-x="458" />
<glyph unicode="&#x2122;" horiz-adv-x="2086" d="M47 1294v144h756v-144h-228v-721h-301v721h-227zM903 571v867h391l152 -494l164 494h381v-869h-299v693l-228 -691h-209l-219 682v-682h-133z" />
</font>
</defs>
</svg>
